<svg width="12" height="16" viewBox="0 0 12 16" fill="none" xmlns="http://www.w3.org/2000/svg">
<g clip-path="url(#clip0)">
<rect width="1440" height="6677" transform="translate(-79 -5964)" fill="white"/>
<path d="M5.70312 14.4766C5.22917 13.7839 4.61849 12.9089 3.87109 11.8516C2.95964 10.5391 2.35807 9.65495 2.06641 9.19922C1.64714 8.54297 1.36458 7.99609 1.21875 7.55859C1.07292 7.10286 1 6.58333 1 6C1 5.05208 1.23698 4.17708 1.71094 3.375C2.1849 2.57292 2.82292 1.9349 3.625 1.46094C4.42708 0.986979 5.30208 0.75 6.25 0.75C7.19792 0.75 8.07292 0.986979 8.875 1.46094C9.67708 1.9349 10.3151 2.57292 10.7891 3.375C11.263 4.17708 11.5 5.05208 11.5 6C11.5 6.58333 11.4271 7.10286 11.2812 7.55859C11.1354 7.99609 10.8529 8.54297 10.4336 9.19922C10.1419 9.65495 9.54036 10.5391 8.62891 11.8516L6.79688 14.4766C6.66927 14.6589 6.48698 14.75 6.25 14.75C6.01302 14.75 5.83073 14.6589 5.70312 14.4766ZM6.25 8.1875C6.85156 8.1875 7.36198 7.97786 7.78125 7.55859C8.21875 7.12109 8.4375 6.60156 8.4375 6C8.4375 5.39844 8.21875 4.88802 7.78125 4.46875C7.36198 4.03125 6.85156 3.8125 6.25 3.8125C5.64844 3.8125 5.12891 4.03125 4.69141 4.46875C4.27214 4.88802 4.0625 5.39844 4.0625 6C4.0625 6.60156 4.27214 7.12109 4.69141 7.55859C5.12891 7.97786 5.64844 8.1875 6.25 8.1875ZM212.867 1.43359L210.023 0.777344C209.878 0.740885 209.732 0.759115 209.586 0.832031C209.44 0.904948 209.34 1.00521 209.285 1.13281L207.973 4.19531C207.918 4.34115 207.909 4.48698 207.945 4.63281C207.982 4.76042 208.055 4.86979 208.164 4.96094L209.805 6.32812C209.312 7.38542 208.647 8.33333 207.809 9.17188C206.988 10.0104 206.04 10.6758 204.965 11.168L203.625 9.52734C203.534 9.39974 203.415 9.32682 203.27 9.30859C203.124 9.27214 202.987 9.28125 202.859 9.33594L199.797 10.6484C199.651 10.7031 199.542 10.8034 199.469 10.9492C199.396 11.0951 199.378 11.2409 199.414 11.3867L200.07 14.2305C200.089 14.3945 200.161 14.5221 200.289 14.6133C200.417 14.7044 200.553 14.75 200.699 14.75C202.996 14.75 205.129 14.1758 207.098 13.0273C209.012 11.8971 210.534 10.375 211.664 8.46094C212.812 6.49219 213.387 4.35938 213.387 2.0625C213.387 1.91667 213.341 1.77995 213.25 1.65234C213.159 1.52474 213.031 1.45182 212.867 1.43359ZM440.242 5.97266C440.297 5.91797 440.352 5.90885 440.406 5.94531C440.479 5.98177 440.516 6.03646 440.516 6.10938V11.6875C440.516 12.0521 440.388 12.362 440.133 12.6172C439.878 12.8724 439.568 13 439.203 13H427.828C427.464 13 427.154 12.8724 426.898 12.6172C426.643 12.362 426.516 12.0521 426.516 11.6875V6.10938C426.516 6.03646 426.543 5.99089 426.598 5.97266C426.671 5.9362 426.734 5.9362 426.789 5.97266C427.391 6.42839 428.794 7.45833 431 9.0625L431.273 9.30859C431.711 9.63672 432.057 9.8737 432.312 10.0195C432.75 10.2565 433.151 10.375 433.516 10.375C433.88 10.375 434.281 10.2474 434.719 9.99219C434.992 9.84635 435.339 9.60938 435.758 9.28125L436.031 9.0625C438.182 7.51302 439.586 6.48307 440.242 5.97266ZM433.516 9.5C433.753 9.5 434.044 9.39062 434.391 9.17188C434.591 9.0625 434.874 8.86198 435.238 8.57031L435.512 8.37891C437.809 6.72005 439.349 5.58073 440.133 4.96094L440.27 4.85156C440.434 4.72396 440.516 4.55078 440.516 4.33203V3.8125C440.516 3.44792 440.388 3.13802 440.133 2.88281C439.878 2.6276 439.568 2.5 439.203 2.5H427.828C427.464 2.5 427.154 2.6276 426.898 2.88281C426.643 3.13802 426.516 3.44792 426.516 3.8125V4.33203C426.516 4.55078 426.598 4.72396 426.762 4.85156L426.953 4.98828C427.755 5.60807 429.277 6.73828 431.52 8.37891L431.793 8.57031C432.158 8.86198 432.44 9.0625 432.641 9.17188C432.987 9.39062 433.279 9.5 433.516 9.5Z" fill="#E8C300"/>
<path d="M24.4492 7.52734C25.2773 7.52734 25.9355 7.75977 26.4238 8.22461C26.916 8.68945 27.1621 9.32617 27.1621 10.1348C27.1621 11.0918 26.8672 11.8281 26.2773 12.3438C25.6875 12.8594 24.8438 13.1172 23.7461 13.1172C22.793 13.1172 22.0234 12.9629 21.4375 12.6543V11.0898C21.7461 11.2539 22.1055 11.3887 22.5156 11.4941C22.9258 11.5957 23.3145 11.6465 23.6816 11.6465C24.7871 11.6465 25.3398 11.1934 25.3398 10.2871C25.3398 9.42383 24.7676 8.99219 23.623 8.99219C23.416 8.99219 23.1875 9.01367 22.9375 9.05664C22.6875 9.0957 22.4844 9.13867 22.3281 9.18555L21.6074 8.79883L21.9297 4.43359H26.5762V5.96875H23.5176L23.3594 7.65039L23.5645 7.60938C23.8027 7.55469 24.0977 7.52734 24.4492 7.52734ZM31.4043 11.6934C31.7168 11.6934 32.0918 11.625 32.5293 11.4883V12.8184C32.084 13.0176 31.5371 13.1172 30.8887 13.1172C30.1738 13.1172 29.6523 12.9375 29.3242 12.5781C29 12.2148 28.8379 11.6719 28.8379 10.9492V7.79102H27.9824V7.03516L28.9668 6.4375L29.4824 5.05469H30.625V6.44922H32.459V7.79102H30.625V10.9492C30.625 11.2031 30.6953 11.3906 30.8359 11.5117C30.9805 11.6328 31.1699 11.6934 31.4043 11.6934ZM39.9062 13H38.1191V9.17383C38.1191 8.22852 37.7676 7.75586 37.0645 7.75586C36.5645 7.75586 36.2031 7.92578 35.9805 8.26562C35.7578 8.60547 35.6465 9.15625 35.6465 9.91797V13H33.8594V3.88281H35.6465V5.74023C35.6465 5.88477 35.6328 6.22461 35.6055 6.75977L35.5645 7.28711H35.6582C36.0566 6.64648 36.6895 6.32617 37.5566 6.32617C38.3262 6.32617 38.9102 6.5332 39.3086 6.94727C39.707 7.36133 39.9062 7.95508 39.9062 8.72852V13ZM45.0039 13V4.43359H46.8203V11.5H50.2949V13H45.0039ZM53.0723 9.71289C53.0723 10.3613 53.1777 10.8516 53.3887 11.1836C53.6035 11.5156 53.9512 11.6816 54.4316 11.6816C54.9082 11.6816 55.25 11.5176 55.457 11.1895C55.668 10.8574 55.7734 10.3652 55.7734 9.71289C55.7734 9.06445 55.668 8.57812 55.457 8.25391C55.2461 7.92969 54.9004 7.76758 54.4199 7.76758C53.9434 7.76758 53.5996 7.92969 53.3887 8.25391C53.1777 8.57422 53.0723 9.06055 53.0723 9.71289ZM57.6016 9.71289C57.6016 10.7793 57.3203 11.6133 56.7578 12.2148C56.1953 12.8164 55.4121 13.1172 54.4082 13.1172C53.7793 13.1172 53.2246 12.9805 52.7441 12.707C52.2637 12.4297 51.8945 12.0332 51.6367 11.5176C51.3789 11.002 51.25 10.4004 51.25 9.71289C51.25 8.64258 51.5293 7.81055 52.0879 7.2168C52.6465 6.62305 53.4316 6.32617 54.4434 6.32617C55.0723 6.32617 55.627 6.46289 56.1074 6.73633C56.5879 7.00977 56.957 7.40234 57.2148 7.91406C57.4727 8.42578 57.6016 9.02539 57.6016 9.71289ZM65.125 13H63.3379V9.17383C63.3379 8.70117 63.2539 8.34766 63.0859 8.11328C62.918 7.875 62.6504 7.75586 62.2832 7.75586C61.7832 7.75586 61.4219 7.92383 61.1992 8.25977C60.9766 8.5918 60.8652 9.14453 60.8652 9.91797V13H59.0781V6.44922H60.4434L60.6836 7.28711H60.7832C60.9824 6.9707 61.2559 6.73242 61.6035 6.57227C61.9551 6.4082 62.3535 6.32617 62.7988 6.32617C63.5605 6.32617 64.1387 6.5332 64.5332 6.94727C64.9277 7.35742 65.125 7.95117 65.125 8.72852V13ZM69.0391 13.1172C68.2695 13.1172 67.6641 12.8184 67.2227 12.2207C66.7852 11.623 66.5664 10.7949 66.5664 9.73633C66.5664 8.66211 66.7891 7.82617 67.2344 7.22852C67.6836 6.62695 68.3008 6.32617 69.0859 6.32617C69.9102 6.32617 70.5391 6.64648 70.9727 7.28711H71.0312C70.9414 6.79883 70.8965 6.36328 70.8965 5.98047V3.88281H72.6895V13H71.3184L70.9727 12.1504H70.8965C70.4902 12.7949 69.8711 13.1172 69.0391 13.1172ZM69.666 11.6934C70.123 11.6934 70.457 11.5605 70.668 11.2949C70.8828 11.0293 71 10.5781 71.0195 9.94141V9.74805C71.0195 9.04492 70.9102 8.54102 70.6914 8.23633C70.4766 7.93164 70.125 7.7793 69.6367 7.7793C69.2383 7.7793 68.9277 7.94922 68.7051 8.28906C68.4863 8.625 68.377 9.11523 68.377 9.75977C68.377 10.4043 68.4883 10.8887 68.7109 11.2129C68.9336 11.5332 69.252 11.6934 69.666 11.6934ZM75.9824 9.71289C75.9824 10.3613 76.0879 10.8516 76.2988 11.1836C76.5137 11.5156 76.8613 11.6816 77.3418 11.6816C77.8184 11.6816 78.1602 11.5176 78.3672 11.1895C78.5781 10.8574 78.6836 10.3652 78.6836 9.71289C78.6836 9.06445 78.5781 8.57812 78.3672 8.25391C78.1562 7.92969 77.8105 7.76758 77.3301 7.76758C76.8535 7.76758 76.5098 7.92969 76.2988 8.25391C76.0879 8.57422 75.9824 9.06055 75.9824 9.71289ZM80.5117 9.71289C80.5117 10.7793 80.2305 11.6133 79.668 12.2148C79.1055 12.8164 78.3223 13.1172 77.3184 13.1172C76.6895 13.1172 76.1348 12.9805 75.6543 12.707C75.1738 12.4297 74.8047 12.0332 74.5469 11.5176C74.2891 11.002 74.1602 10.4004 74.1602 9.71289C74.1602 8.64258 74.4395 7.81055 74.998 7.2168C75.5566 6.62305 76.3418 6.32617 77.3535 6.32617C77.9824 6.32617 78.5371 6.46289 79.0176 6.73633C79.498 7.00977 79.8672 7.40234 80.125 7.91406C80.3828 8.42578 80.5117 9.02539 80.5117 9.71289ZM88.0352 13H86.248V9.17383C86.248 8.70117 86.1641 8.34766 85.9961 8.11328C85.8281 7.875 85.5605 7.75586 85.1934 7.75586C84.6934 7.75586 84.332 7.92383 84.1094 8.25977C83.8867 8.5918 83.7754 9.14453 83.7754 9.91797V13H81.9883V6.44922H83.3535L83.5938 7.28711H83.6934C83.8926 6.9707 84.166 6.73242 84.5137 6.57227C84.8652 6.4082 85.2637 6.32617 85.709 6.32617C86.4707 6.32617 87.0488 6.5332 87.4434 6.94727C87.8379 7.35742 88.0352 7.95117 88.0352 8.72852V13ZM93.1328 4.43359H95.7988C97.0137 4.43359 97.8945 4.60742 98.4414 4.95508C98.9922 5.29883 99.2676 5.84766 99.2676 6.60156C99.2676 7.11328 99.1465 7.5332 98.9043 7.86133C98.666 8.18945 98.3477 8.38672 97.9492 8.45312V8.51172C98.4922 8.63281 98.8828 8.85938 99.1211 9.19141C99.3633 9.52344 99.4844 9.96484 99.4844 10.5156C99.4844 11.2969 99.2012 11.9062 98.6348 12.3438C98.0723 12.7812 97.3066 13 96.3379 13H93.1328V4.43359ZM94.9492 7.82617H96.0039C96.4961 7.82617 96.8516 7.75 97.0703 7.59766C97.293 7.44531 97.4043 7.19336 97.4043 6.8418C97.4043 6.51367 97.2832 6.2793 97.041 6.13867C96.8027 5.99414 96.4238 5.92188 95.9043 5.92188H94.9492V7.82617ZM94.9492 9.26758V11.5H96.1328C96.6328 11.5 97.002 11.4043 97.2402 11.2129C97.4785 11.0215 97.5977 10.7285 97.5977 10.334C97.5977 9.62305 97.0898 9.26758 96.0742 9.26758H94.9492ZM102.479 9.71289C102.479 10.3613 102.584 10.8516 102.795 11.1836C103.01 11.5156 103.357 11.6816 103.838 11.6816C104.314 11.6816 104.656 11.5176 104.863 11.1895C105.074 10.8574 105.18 10.3652 105.18 9.71289C105.18 9.06445 105.074 8.57812 104.863 8.25391C104.652 7.92969 104.307 7.76758 103.826 7.76758C103.35 7.76758 103.006 7.92969 102.795 8.25391C102.584 8.57422 102.479 9.06055 102.479 9.71289ZM107.008 9.71289C107.008 10.7793 106.727 11.6133 106.164 12.2148C105.602 12.8164 104.818 13.1172 103.814 13.1172C103.186 13.1172 102.631 12.9805 102.15 12.707C101.67 12.4297 101.301 12.0332 101.043 11.5176C100.785 11.002 100.656 10.4004 100.656 9.71289C100.656 8.64258 100.936 7.81055 101.494 7.2168C102.053 6.62305 102.838 6.32617 103.85 6.32617C104.479 6.32617 105.033 6.46289 105.514 6.73633C105.994 7.00977 106.363 7.40234 106.621 7.91406C106.879 8.42578 107.008 9.02539 107.008 9.71289ZM113.125 13L112.885 12.1621H112.791C112.6 12.4668 112.328 12.7031 111.977 12.8711C111.625 13.0352 111.225 13.1172 110.775 13.1172C110.006 13.1172 109.426 12.9121 109.035 12.502C108.645 12.0879 108.449 11.4941 108.449 10.7207V6.44922H110.236V10.2754C110.236 10.748 110.32 11.1035 110.488 11.3418C110.656 11.5762 110.924 11.6934 111.291 11.6934C111.791 11.6934 112.152 11.5273 112.375 11.1953C112.598 10.8594 112.709 10.3047 112.709 9.53125V6.44922H114.496V13H113.125ZM118.158 13H116.371V3.88281H118.158V13ZM122.752 7.59766C122.373 7.59766 122.076 7.71875 121.861 7.96094C121.646 8.19922 121.523 8.53906 121.492 8.98047H124C123.992 8.53906 123.877 8.19922 123.654 7.96094C123.432 7.71875 123.131 7.59766 122.752 7.59766ZM123.004 13.1172C121.949 13.1172 121.125 12.8262 120.531 12.2441C119.938 11.6621 119.641 10.8379 119.641 9.77148C119.641 8.67383 119.914 7.82617 120.461 7.22852C121.012 6.62695 121.771 6.32617 122.74 6.32617C123.666 6.32617 124.387 6.58984 124.902 7.11719C125.418 7.64453 125.676 8.37305 125.676 9.30273V10.1699H121.451C121.471 10.6777 121.621 11.0742 121.902 11.3594C122.184 11.6445 122.578 11.7871 123.086 11.7871C123.48 11.7871 123.854 11.7461 124.205 11.6641C124.557 11.582 124.924 11.4512 125.307 11.2715V12.6543C124.994 12.8105 124.66 12.9258 124.305 13C123.949 13.0781 123.516 13.1172 123.004 13.1172ZM128.688 13L126.191 6.44922H128.061L129.326 10.1816C129.467 10.6543 129.555 11.1016 129.59 11.5234H129.625C129.645 11.1484 129.732 10.7012 129.889 10.1816L131.148 6.44922H133.018L130.521 13H128.688ZM138.121 13L137.775 12.1094H137.729C137.428 12.4883 137.117 12.752 136.797 12.9004C136.48 13.0449 136.066 13.1172 135.555 13.1172C134.926 13.1172 134.43 12.9375 134.066 12.5781C133.707 12.2188 133.527 11.707 133.527 11.043C133.527 10.3477 133.77 9.83594 134.254 9.50781C134.742 9.17578 135.477 8.99219 136.457 8.95703L137.594 8.92188V8.63477C137.594 7.9707 137.254 7.63867 136.574 7.63867C136.051 7.63867 135.436 7.79688 134.729 8.11328L134.137 6.90625C134.891 6.51172 135.727 6.31445 136.645 6.31445C137.523 6.31445 138.197 6.50586 138.666 6.88867C139.135 7.27148 139.369 7.85352 139.369 8.63477V13H138.121ZM137.594 9.96484L136.902 9.98828C136.383 10.0039 135.996 10.0977 135.742 10.2695C135.488 10.4414 135.361 10.7031 135.361 11.0547C135.361 11.5586 135.65 11.8105 136.229 11.8105C136.643 11.8105 136.973 11.6914 137.219 11.4531C137.469 11.2148 137.594 10.8984 137.594 10.5039V9.96484ZM144.871 6.32617C145.113 6.32617 145.314 6.34375 145.475 6.37891L145.34 8.05469C145.195 8.01562 145.02 7.99609 144.812 7.99609C144.242 7.99609 143.797 8.14258 143.477 8.43555C143.16 8.72852 143.002 9.13867 143.002 9.66602V13H141.215V6.44922H142.568L142.832 7.55078H142.92C143.123 7.18359 143.396 6.88867 143.74 6.66602C144.088 6.43945 144.465 6.32617 144.871 6.32617ZM148.738 13.1172C147.969 13.1172 147.363 12.8184 146.922 12.2207C146.484 11.623 146.266 10.7949 146.266 9.73633C146.266 8.66211 146.488 7.82617 146.934 7.22852C147.383 6.62695 148 6.32617 148.785 6.32617C149.609 6.32617 150.238 6.64648 150.672 7.28711H150.73C150.641 6.79883 150.596 6.36328 150.596 5.98047V3.88281H152.389V13H151.018L150.672 12.1504H150.596C150.189 12.7949 149.57 13.1172 148.738 13.1172ZM149.365 11.6934C149.822 11.6934 150.156 11.5605 150.367 11.2949C150.582 11.0293 150.699 10.5781 150.719 9.94141V9.74805C150.719 9.04492 150.609 8.54102 150.391 8.23633C150.176 7.93164 149.824 7.7793 149.336 7.7793C148.938 7.7793 148.627 7.94922 148.404 8.28906C148.186 8.625 148.076 9.11523 148.076 9.75977C148.076 10.4043 148.188 10.8887 148.41 11.2129C148.633 11.5332 148.951 11.6934 149.365 11.6934ZM156.01 11.7402C155.807 12.5293 155.463 13.4648 154.979 14.5469H153.689C153.943 13.5078 154.141 12.5273 154.281 11.6055H155.922L156.01 11.7402ZM167.969 4.43359V9.97656C167.969 10.6094 167.826 11.1641 167.541 11.6406C167.26 12.1172 166.852 12.4824 166.316 12.7363C165.781 12.9902 165.148 13.1172 164.418 13.1172C163.316 13.1172 162.461 12.8359 161.852 12.2734C161.242 11.707 160.938 10.9336 160.938 9.95312V4.43359H162.748V9.67773C162.748 10.3379 162.881 10.8223 163.146 11.1309C163.412 11.4395 163.852 11.5938 164.465 11.5938C165.059 11.5938 165.488 11.4395 165.754 11.1309C166.023 10.8184 166.158 10.3301 166.158 9.66602V4.43359H167.969ZM169.674 12.1621C169.674 11.834 169.762 11.5859 169.938 11.418C170.113 11.25 170.369 11.166 170.705 11.166C171.029 11.166 171.279 11.252 171.455 11.4238C171.635 11.5957 171.725 11.8418 171.725 12.1621C171.725 12.4707 171.635 12.7148 171.455 12.8945C171.275 13.0703 171.025 13.1582 170.705 13.1582C170.377 13.1582 170.123 13.0723 169.943 12.9004C169.764 12.7246 169.674 12.4785 169.674 12.1621ZM180.379 13H178.316L176.072 9.39062L175.305 9.94141V13H173.488V4.43359H175.305V8.35352L176.02 7.3457L178.34 4.43359H180.355L177.367 8.22461L180.379 13ZM181.064 12.1621C181.064 11.834 181.152 11.5859 181.328 11.418C181.504 11.25 181.76 11.166 182.096 11.166C182.42 11.166 182.67 11.252 182.846 11.4238C183.025 11.5957 183.115 11.8418 183.115 12.1621C183.115 12.4707 183.025 12.7148 182.846 12.8945C182.666 13.0703 182.416 13.1582 182.096 13.1582C181.768 13.1582 181.514 13.0723 181.334 12.9004C181.154 12.7246 181.064 12.4785 181.064 12.1621ZM225.521 9.41406H223.254V8.13086H225.521V5.8457H226.805V8.13086H229.072V9.41406H226.805V11.6699H225.521V9.41406ZM236.256 11.2246H235.225V13H233.455V11.2246H229.799V9.96484L233.555 4.43359H235.225V9.81836H236.256V11.2246ZM233.455 9.81836V8.36523C233.455 8.12305 233.465 7.77148 233.484 7.31055C233.504 6.84961 233.52 6.58203 233.531 6.50781H233.484C233.34 6.82812 233.166 7.14062 232.963 7.44531L231.393 9.81836H233.455ZM242.871 8.7168C242.871 10.2129 242.625 11.3203 242.133 12.0391C241.645 12.7578 240.891 13.1172 239.871 13.1172C238.883 13.1172 238.137 12.7461 237.633 12.0039C237.133 11.2617 236.883 10.166 236.883 8.7168C236.883 7.20508 237.127 6.0918 237.615 5.37695C238.104 4.6582 238.855 4.29883 239.871 4.29883C240.859 4.29883 241.605 4.67383 242.109 5.42383C242.617 6.17383 242.871 7.27148 242.871 8.7168ZM238.682 8.7168C238.682 9.76758 238.771 10.5215 238.951 10.9785C239.135 11.4316 239.441 11.6582 239.871 11.6582C240.293 11.6582 240.598 11.4277 240.785 10.9668C240.973 10.5059 241.066 9.75586 241.066 8.7168C241.066 7.66602 240.971 6.91211 240.779 6.45508C240.592 5.99414 240.289 5.76367 239.871 5.76367C239.445 5.76367 239.141 5.99414 238.957 6.45508C238.773 6.91211 238.682 7.66602 238.682 8.7168ZM247.752 13L250.969 5.96875H246.744V4.44531H252.891V5.58203L249.65 13H247.752ZM259.746 13H253.758V11.7402L255.908 9.56641C256.545 8.91406 256.961 8.46289 257.156 8.21289C257.352 7.95898 257.492 7.72461 257.578 7.50977C257.664 7.29492 257.707 7.07227 257.707 6.8418C257.707 6.49805 257.611 6.24219 257.42 6.07422C257.232 5.90625 256.98 5.82227 256.664 5.82227C256.332 5.82227 256.01 5.89844 255.697 6.05078C255.385 6.20312 255.059 6.41992 254.719 6.70117L253.734 5.53516C254.156 5.17578 254.506 4.92188 254.783 4.77344C255.061 4.625 255.363 4.51172 255.691 4.43359C256.02 4.35156 256.387 4.31055 256.793 4.31055C257.328 4.31055 257.801 4.4082 258.211 4.60352C258.621 4.79883 258.939 5.07227 259.166 5.42383C259.393 5.77539 259.506 6.17773 259.506 6.63086C259.506 7.02539 259.436 7.39648 259.295 7.74414C259.158 8.08789 258.943 8.44141 258.65 8.80469C258.361 9.16797 257.85 9.68555 257.115 10.3574L256.014 11.3945V11.4766H259.746V13ZM266.566 8.08984C266.566 9.77734 266.211 11.0371 265.5 11.8691C264.789 12.7012 263.713 13.1172 262.271 13.1172C261.764 13.1172 261.379 13.0898 261.117 13.0352V11.582C261.445 11.6641 261.789 11.7051 262.148 11.7051C262.754 11.7051 263.252 11.6172 263.643 11.4414C264.033 11.2617 264.332 10.9824 264.539 10.6035C264.746 10.2207 264.865 9.69531 264.896 9.02734H264.826C264.6 9.39453 264.338 9.65234 264.041 9.80078C263.744 9.94922 263.373 10.0234 262.928 10.0234C262.182 10.0234 261.594 9.78516 261.164 9.30859C260.734 8.82812 260.52 8.16211 260.52 7.31055C260.52 6.39258 260.779 5.66797 261.299 5.13672C261.822 4.60156 262.533 4.33398 263.432 4.33398C264.064 4.33398 264.617 4.48242 265.09 4.7793C265.566 5.07617 265.932 5.50781 266.186 6.07422C266.439 6.63672 266.566 7.30859 266.566 8.08984ZM263.467 5.78711C263.092 5.78711 262.799 5.91602 262.588 6.17383C262.377 6.43164 262.271 6.80273 262.271 7.28711C262.271 7.70117 262.367 8.0293 262.559 8.27148C262.75 8.51367 263.041 8.63477 263.432 8.63477C263.799 8.63477 264.113 8.51562 264.375 8.27734C264.637 8.03516 264.768 7.75781 264.768 7.44531C264.768 6.98047 264.645 6.58789 264.398 6.26758C264.156 5.94727 263.846 5.78711 263.467 5.78711ZM275.062 13H273.252V8.04297L273.27 7.22852L273.299 6.33789C272.998 6.63867 272.789 6.83594 272.672 6.92969L271.688 7.7207L270.814 6.63086L273.574 4.43359H275.062V13ZM283.096 6.34961C283.096 6.88477 282.934 7.33984 282.609 7.71484C282.285 8.08984 281.83 8.34766 281.244 8.48828V8.52344C281.936 8.60938 282.459 8.82031 282.814 9.15625C283.17 9.48828 283.348 9.9375 283.348 10.5039C283.348 11.3281 283.049 11.9707 282.451 12.4316C281.854 12.8887 281 13.1172 279.891 13.1172C278.961 13.1172 278.137 12.9629 277.418 12.6543V11.1133C277.75 11.2812 278.115 11.418 278.514 11.5234C278.912 11.6289 279.307 11.6816 279.697 11.6816C280.295 11.6816 280.736 11.5801 281.021 11.377C281.307 11.1738 281.449 10.8477 281.449 10.3984C281.449 9.99609 281.285 9.71094 280.957 9.54297C280.629 9.375 280.105 9.29102 279.387 9.29102H278.736V7.90234H279.398C280.062 7.90234 280.547 7.81641 280.852 7.64453C281.16 7.46875 281.314 7.16992 281.314 6.74805C281.314 6.09961 280.908 5.77539 280.096 5.77539C279.814 5.77539 279.527 5.82227 279.234 5.91602C278.945 6.00977 278.623 6.17188 278.268 6.40234L277.43 5.1543C278.211 4.5918 279.143 4.31055 280.225 4.31055C281.111 4.31055 281.811 4.49023 282.322 4.84961C282.838 5.20898 283.096 5.70898 283.096 6.34961ZM288.773 13H286.963V8.04297L286.98 7.22852L287.01 6.33789C286.709 6.63867 286.5 6.83594 286.383 6.92969L285.398 7.7207L284.525 6.63086L287.285 4.43359H288.773V13ZM294.211 9.36133C294.211 7.66602 294.568 6.4043 295.283 5.57617C296.002 4.74805 297.076 4.33398 298.506 4.33398C298.994 4.33398 299.377 4.36328 299.654 4.42188V5.86914C299.307 5.79102 298.963 5.75195 298.623 5.75195C298.002 5.75195 297.494 5.8457 297.1 6.0332C296.709 6.2207 296.416 6.49805 296.221 6.86523C296.025 7.23242 295.91 7.75391 295.875 8.42969H295.951C296.338 7.76562 296.957 7.43359 297.809 7.43359C298.574 7.43359 299.174 7.67383 299.607 8.1543C300.041 8.63477 300.258 9.29883 300.258 10.1465C300.258 11.0605 300 11.7852 299.484 12.3203C298.969 12.8516 298.254 13.1172 297.34 13.1172C296.707 13.1172 296.154 12.9707 295.682 12.6777C295.213 12.3848 294.85 11.957 294.592 11.3945C294.338 10.832 294.211 10.1543 294.211 9.36133ZM297.305 11.6699C297.691 11.6699 297.988 11.541 298.195 11.2832C298.402 11.0215 298.506 10.6504 298.506 10.1699C298.506 9.75195 298.408 9.42383 298.213 9.18555C298.021 8.94336 297.73 8.82227 297.34 8.82227C296.973 8.82227 296.658 8.94141 296.396 9.17969C296.139 9.41797 296.01 9.69531 296.01 10.0117C296.01 10.4766 296.131 10.8691 296.373 11.1895C296.619 11.5098 296.93 11.6699 297.305 11.6699ZM306.779 6.34961C306.779 6.88477 306.617 7.33984 306.293 7.71484C305.969 8.08984 305.514 8.34766 304.928 8.48828V8.52344C305.619 8.60938 306.143 8.82031 306.498 9.15625C306.854 9.48828 307.031 9.9375 307.031 10.5039C307.031 11.3281 306.732 11.9707 306.135 12.4316C305.537 12.8887 304.684 13.1172 303.574 13.1172C302.645 13.1172 301.82 12.9629 301.102 12.6543V11.1133C301.434 11.2812 301.799 11.418 302.197 11.5234C302.596 11.6289 302.99 11.6816 303.381 11.6816C303.979 11.6816 304.42 11.5801 304.705 11.377C304.99 11.1738 305.133 10.8477 305.133 10.3984C305.133 9.99609 304.969 9.71094 304.641 9.54297C304.312 9.375 303.789 9.29102 303.07 9.29102H302.42V7.90234H303.082C303.746 7.90234 304.23 7.81641 304.535 7.64453C304.844 7.46875 304.998 7.16992 304.998 6.74805C304.998 6.09961 304.592 5.77539 303.779 5.77539C303.498 5.77539 303.211 5.82227 302.918 5.91602C302.629 6.00977 302.307 6.17188 301.951 6.40234L301.113 5.1543C301.895 4.5918 302.826 4.31055 303.908 4.31055C304.795 4.31055 305.494 4.49023 306.006 4.84961C306.521 5.20898 306.779 5.70898 306.779 6.34961ZM308.83 13L312.047 5.96875H307.822V4.44531H313.969V5.58203L310.729 13H308.83ZM319.254 4.43359L316.061 13H314.438L317.631 4.43359H319.254ZM322.096 9.41406H319.828V8.13086H322.096V5.8457H323.379V8.13086H325.646V9.41406H323.379V11.6699H322.096V9.41406ZM332.83 11.2246H331.799V13H330.029V11.2246H326.373V9.96484L330.129 4.43359H331.799V9.81836H332.83V11.2246ZM330.029 9.81836V8.36523C330.029 8.12305 330.039 7.77148 330.059 7.31055C330.078 6.84961 330.094 6.58203 330.105 6.50781H330.059C329.914 6.82812 329.74 7.14062 329.537 7.44531L327.967 9.81836H330.029ZM339.445 8.7168C339.445 10.2129 339.199 11.3203 338.707 12.0391C338.219 12.7578 337.465 13.1172 336.445 13.1172C335.457 13.1172 334.711 12.7461 334.207 12.0039C333.707 11.2617 333.457 10.166 333.457 8.7168C333.457 7.20508 333.701 6.0918 334.189 5.37695C334.678 4.6582 335.43 4.29883 336.445 4.29883C337.434 4.29883 338.18 4.67383 338.684 5.42383C339.191 6.17383 339.445 7.27148 339.445 8.7168ZM335.256 8.7168C335.256 9.76758 335.346 10.5215 335.525 10.9785C335.709 11.4316 336.016 11.6582 336.445 11.6582C336.867 11.6582 337.172 11.4277 337.359 10.9668C337.547 10.5059 337.641 9.75586 337.641 8.7168C337.641 7.66602 337.545 6.91211 337.354 6.45508C337.166 5.99414 336.863 5.76367 336.445 5.76367C336.02 5.76367 335.715 5.99414 335.531 6.45508C335.348 6.91211 335.256 7.66602 335.256 8.7168ZM344.326 13L347.543 5.96875H343.318V4.44531H349.465V5.58203L346.225 13H344.326ZM356.32 13H350.332V11.7402L352.482 9.56641C353.119 8.91406 353.535 8.46289 353.73 8.21289C353.926 7.95898 354.066 7.72461 354.152 7.50977C354.238 7.29492 354.281 7.07227 354.281 6.8418C354.281 6.49805 354.186 6.24219 353.994 6.07422C353.807 5.90625 353.555 5.82227 353.238 5.82227C352.906 5.82227 352.584 5.89844 352.271 6.05078C351.959 6.20312 351.633 6.41992 351.293 6.70117L350.309 5.53516C350.73 5.17578 351.08 4.92188 351.357 4.77344C351.635 4.625 351.938 4.51172 352.266 4.43359C352.594 4.35156 352.961 4.31055 353.367 4.31055C353.902 4.31055 354.375 4.4082 354.785 4.60352C355.195 4.79883 355.514 5.07227 355.74 5.42383C355.967 5.77539 356.08 6.17773 356.08 6.63086C356.08 7.02539 356.01 7.39648 355.869 7.74414C355.732 8.08789 355.518 8.44141 355.225 8.80469C354.936 9.16797 354.424 9.68555 353.689 10.3574L352.588 11.3945V11.4766H356.32V13ZM357.129 9.36133C357.129 7.66602 357.486 6.4043 358.201 5.57617C358.92 4.74805 359.994 4.33398 361.424 4.33398C361.912 4.33398 362.295 4.36328 362.572 4.42188V5.86914C362.225 5.79102 361.881 5.75195 361.541 5.75195C360.92 5.75195 360.412 5.8457 360.018 6.0332C359.627 6.2207 359.334 6.49805 359.139 6.86523C358.943 7.23242 358.828 7.75391 358.793 8.42969H358.869C359.256 7.76562 359.875 7.43359 360.727 7.43359C361.492 7.43359 362.092 7.67383 362.525 8.1543C362.959 8.63477 363.176 9.29883 363.176 10.1465C363.176 11.0605 362.918 11.7852 362.402 12.3203C361.887 12.8516 361.172 13.1172 360.258 13.1172C359.625 13.1172 359.072 12.9707 358.6 12.6777C358.131 12.3848 357.768 11.957 357.51 11.3945C357.256 10.832 357.129 10.1543 357.129 9.36133ZM360.223 11.6699C360.609 11.6699 360.906 11.541 361.113 11.2832C361.32 11.0215 361.424 10.6504 361.424 10.1699C361.424 9.75195 361.326 9.42383 361.131 9.18555C360.939 8.94336 360.648 8.82227 360.258 8.82227C359.891 8.82227 359.576 8.94141 359.314 9.17969C359.057 9.41797 358.928 9.69531 358.928 10.0117C358.928 10.4766 359.049 10.8691 359.291 11.1895C359.537 11.5098 359.848 11.6699 360.223 11.6699ZM373.342 11.2246H372.311V13H370.541V11.2246H366.885V9.96484L370.641 4.43359H372.311V9.81836H373.342V11.2246ZM370.541 9.81836V8.36523C370.541 8.12305 370.551 7.77148 370.57 7.31055C370.59 6.84961 370.605 6.58203 370.617 6.50781H370.57C370.426 6.82812 370.252 7.14062 370.049 7.44531L368.479 9.81836H370.541ZM377.133 7.52734C377.961 7.52734 378.619 7.75977 379.107 8.22461C379.6 8.68945 379.846 9.32617 379.846 10.1348C379.846 11.0918 379.551 11.8281 378.961 12.3438C378.371 12.8594 377.527 13.1172 376.43 13.1172C375.477 13.1172 374.707 12.9629 374.121 12.6543V11.0898C374.43 11.2539 374.789 11.3887 375.199 11.4941C375.609 11.5957 375.998 11.6465 376.365 11.6465C377.471 11.6465 378.023 11.1934 378.023 10.2871C378.023 9.42383 377.451 8.99219 376.307 8.99219C376.1 8.99219 375.871 9.01367 375.621 9.05664C375.371 9.0957 375.168 9.13867 375.012 9.18555L374.291 8.79883L374.613 4.43359H379.26V5.96875H376.201L376.043 7.65039L376.248 7.60938C376.486 7.55469 376.781 7.52734 377.133 7.52734ZM383.824 4.32227C384.645 4.32227 385.305 4.50977 385.805 4.88477C386.309 5.25586 386.561 5.75781 386.561 6.39062C386.561 6.82812 386.439 7.21875 386.197 7.5625C385.955 7.90234 385.564 8.20703 385.025 8.47656C385.666 8.82031 386.125 9.17969 386.402 9.55469C386.684 9.92578 386.824 10.334 386.824 10.7793C386.824 11.4824 386.549 12.0488 385.998 12.4785C385.447 12.9043 384.723 13.1172 383.824 13.1172C382.887 13.1172 382.15 12.918 381.615 12.5195C381.08 12.1211 380.812 11.5566 380.812 10.8262C380.812 10.3379 380.941 9.9043 381.199 9.52539C381.461 9.14648 381.879 8.8125 382.453 8.52344C381.965 8.21484 381.613 7.88477 381.398 7.5332C381.184 7.18164 381.076 6.79688 381.076 6.37891C381.076 5.76562 381.33 5.26953 381.838 4.89062C382.346 4.51172 383.008 4.32227 383.824 4.32227ZM382.488 10.7207C382.488 11.0566 382.605 11.3184 382.84 11.5059C383.074 11.6934 383.395 11.7871 383.801 11.7871C384.25 11.7871 384.586 11.6914 384.809 11.5C385.031 11.3047 385.143 11.0488 385.143 10.7324C385.143 10.4707 385.031 10.2266 384.809 10C384.59 9.76953 384.232 9.52539 383.736 9.26758C382.904 9.65039 382.488 10.1348 382.488 10.7207ZM383.812 5.64648C383.504 5.64648 383.254 5.72656 383.062 5.88672C382.875 6.04297 382.781 6.25391 382.781 6.51953C382.781 6.75391 382.855 6.96484 383.004 7.15234C383.156 7.33594 383.43 7.52539 383.824 7.7207C384.207 7.54102 384.475 7.35742 384.627 7.16992C384.779 6.98242 384.855 6.76562 384.855 6.51953C384.855 6.25 384.758 6.03711 384.562 5.88086C384.367 5.72461 384.117 5.64648 383.812 5.64648ZM391.693 13L394.91 5.96875H390.686V4.44531H396.832V5.58203L393.592 13H391.693ZM400.652 4.32227C401.473 4.32227 402.133 4.50977 402.633 4.88477C403.137 5.25586 403.389 5.75781 403.389 6.39062C403.389 6.82812 403.268 7.21875 403.025 7.5625C402.783 7.90234 402.393 8.20703 401.854 8.47656C402.494 8.82031 402.953 9.17969 403.23 9.55469C403.512 9.92578 403.652 10.334 403.652 10.7793C403.652 11.4824 403.377 12.0488 402.826 12.4785C402.275 12.9043 401.551 13.1172 400.652 13.1172C399.715 13.1172 398.979 12.918 398.443 12.5195C397.908 12.1211 397.641 11.5566 397.641 10.8262C397.641 10.3379 397.77 9.9043 398.027 9.52539C398.289 9.14648 398.707 8.8125 399.281 8.52344C398.793 8.21484 398.441 7.88477 398.227 7.5332C398.012 7.18164 397.904 6.79688 397.904 6.37891C397.904 5.76562 398.158 5.26953 398.666 4.89062C399.174 4.51172 399.836 4.32227 400.652 4.32227ZM399.316 10.7207C399.316 11.0566 399.434 11.3184 399.668 11.5059C399.902 11.6934 400.223 11.7871 400.629 11.7871C401.078 11.7871 401.414 11.6914 401.637 11.5C401.859 11.3047 401.971 11.0488 401.971 10.7324C401.971 10.4707 401.859 10.2266 401.637 10C401.418 9.76953 401.061 9.52539 400.564 9.26758C399.732 9.65039 399.316 10.1348 399.316 10.7207ZM400.641 5.64648C400.332 5.64648 400.082 5.72656 399.891 5.88672C399.703 6.04297 399.609 6.25391 399.609 6.51953C399.609 6.75391 399.684 6.96484 399.832 7.15234C399.984 7.33594 400.258 7.52539 400.652 7.7207C401.035 7.54102 401.303 7.35742 401.455 7.16992C401.607 6.98242 401.684 6.76562 401.684 6.51953C401.684 6.25 401.586 6.03711 401.391 5.88086C401.195 5.72461 400.945 5.64648 400.641 5.64648ZM410.543 13H404.555V11.7402L406.705 9.56641C407.342 8.91406 407.758 8.46289 407.953 8.21289C408.148 7.95898 408.289 7.72461 408.375 7.50977C408.461 7.29492 408.504 7.07227 408.504 6.8418C408.504 6.49805 408.408 6.24219 408.217 6.07422C408.029 5.90625 407.777 5.82227 407.461 5.82227C407.129 5.82227 406.807 5.89844 406.494 6.05078C406.182 6.20312 405.855 6.41992 405.516 6.70117L404.531 5.53516C404.953 5.17578 405.303 4.92188 405.58 4.77344C405.857 4.625 406.16 4.51172 406.488 4.43359C406.816 4.35156 407.184 4.31055 407.59 4.31055C408.125 4.31055 408.598 4.4082 409.008 4.60352C409.418 4.79883 409.736 5.07227 409.963 5.42383C410.189 5.77539 410.303 6.17773 410.303 6.63086C410.303 7.02539 410.232 7.39648 410.092 7.74414C409.955 8.08789 409.74 8.44141 409.447 8.80469C409.158 9.16797 408.646 9.68555 407.912 10.3574L406.811 11.3945V11.4766H410.543V13ZM452.229 9.71289C452.229 10.3613 452.334 10.8516 452.545 11.1836C452.76 11.5156 453.107 11.6816 453.588 11.6816C454.064 11.6816 454.406 11.5176 454.613 11.1895C454.824 10.8574 454.93 10.3652 454.93 9.71289C454.93 9.06445 454.824 8.57812 454.613 8.25391C454.402 7.92969 454.057 7.76758 453.576 7.76758C453.1 7.76758 452.756 7.92969 452.545 8.25391C452.334 8.57422 452.229 9.06055 452.229 9.71289ZM456.758 9.71289C456.758 10.7793 456.477 11.6133 455.914 12.2148C455.352 12.8164 454.568 13.1172 453.564 13.1172C452.936 13.1172 452.381 12.9805 451.9 12.707C451.42 12.4297 451.051 12.0332 450.793 11.5176C450.535 11.002 450.406 10.4004 450.406 9.71289C450.406 8.64258 450.686 7.81055 451.244 7.2168C451.803 6.62305 452.588 6.32617 453.6 6.32617C454.229 6.32617 454.783 6.46289 455.264 6.73633C455.744 7.00977 456.113 7.40234 456.371 7.91406C456.629 8.42578 456.758 9.02539 456.758 9.71289ZM461.855 7.79102H460.309V13H458.521V7.79102H457.537V6.92969L458.521 6.44922V5.96875C458.521 5.22266 458.705 4.67773 459.072 4.33398C459.439 3.99023 460.027 3.81836 460.836 3.81836C461.453 3.81836 462.002 3.91016 462.482 4.09375L462.025 5.40625C461.666 5.29297 461.334 5.23633 461.029 5.23633C460.775 5.23633 460.592 5.3125 460.479 5.46484C460.365 5.61328 460.309 5.80469 460.309 6.03906V6.44922H461.855V7.79102ZM466.502 7.79102H464.955V13H463.168V7.79102H462.184V6.92969L463.168 6.44922V5.96875C463.168 5.22266 463.352 4.67773 463.719 4.33398C464.086 3.99023 464.674 3.81836 465.482 3.81836C466.1 3.81836 466.648 3.91016 467.129 4.09375L466.672 5.40625C466.312 5.29297 465.98 5.23633 465.676 5.23633C465.422 5.23633 465.238 5.3125 465.125 5.46484C465.012 5.61328 464.955 5.80469 464.955 6.03906V6.44922H466.502V7.79102ZM467.434 4.75586C467.434 4.17383 467.758 3.88281 468.406 3.88281C469.055 3.88281 469.379 4.17383 469.379 4.75586C469.379 5.0332 469.297 5.25 469.133 5.40625C468.973 5.55859 468.73 5.63477 468.406 5.63477C467.758 5.63477 467.434 5.3418 467.434 4.75586ZM469.297 13H467.51V6.44922H469.297V13ZM473.832 13.1172C471.793 13.1172 470.773 11.998 470.773 9.75977C470.773 8.64648 471.051 7.79688 471.605 7.21094C472.16 6.62109 472.955 6.32617 473.99 6.32617C474.748 6.32617 475.428 6.47461 476.029 6.77148L475.502 8.1543C475.221 8.04102 474.959 7.94922 474.717 7.87891C474.475 7.80469 474.232 7.76758 473.99 7.76758C473.061 7.76758 472.596 8.42773 472.596 9.74805C472.596 11.0293 473.061 11.6699 473.99 11.6699C474.334 11.6699 474.652 11.625 474.945 11.5352C475.238 11.4414 475.531 11.2969 475.824 11.1016V12.6309C475.535 12.8145 475.242 12.9414 474.945 13.0117C474.652 13.082 474.281 13.1172 473.832 13.1172ZM480.061 7.59766C479.682 7.59766 479.385 7.71875 479.17 7.96094C478.955 8.19922 478.832 8.53906 478.801 8.98047H481.309C481.301 8.53906 481.186 8.19922 480.963 7.96094C480.74 7.71875 480.439 7.59766 480.061 7.59766ZM480.312 13.1172C479.258 13.1172 478.434 12.8262 477.84 12.2441C477.246 11.6621 476.949 10.8379 476.949 9.77148C476.949 8.67383 477.223 7.82617 477.77 7.22852C478.32 6.62695 479.08 6.32617 480.049 6.32617C480.975 6.32617 481.695 6.58984 482.211 7.11719C482.727 7.64453 482.984 8.37305 482.984 9.30273V10.1699H478.76C478.779 10.6777 478.93 11.0742 479.211 11.3594C479.492 11.6445 479.887 11.7871 480.395 11.7871C480.789 11.7871 481.162 11.7461 481.514 11.6641C481.865 11.582 482.232 11.4512 482.615 11.2715V12.6543C482.303 12.8105 481.969 12.9258 481.613 13C481.258 13.0781 480.824 13.1172 480.312 13.1172ZM493.666 8.59375C493.666 9.15625 493.576 9.67188 493.396 10.1406C493.217 10.6055 492.963 10.9707 492.635 11.2363C492.307 11.502 491.926 11.6348 491.492 11.6348C491.203 11.6348 490.947 11.5664 490.725 11.4297C490.502 11.2891 490.342 11.1055 490.244 10.8789H490.15C489.729 11.3828 489.191 11.6348 488.539 11.6348C487.848 11.6348 487.303 11.4277 486.904 11.0137C486.506 10.5957 486.307 10.0254 486.307 9.30273C486.307 8.47852 486.568 7.81445 487.092 7.31055C487.615 6.80664 488.299 6.55469 489.143 6.55469C489.479 6.55469 489.848 6.58789 490.25 6.6543C490.656 6.7168 490.99 6.79297 491.252 6.88281L491.117 9.74805C491.117 10.291 491.266 10.5625 491.562 10.5625C491.812 10.5625 492.012 10.3809 492.16 10.0176C492.309 9.65039 492.383 9.17188 492.383 8.58203C492.383 7.95312 492.252 7.39844 491.99 6.91797C491.729 6.43359 491.359 6.06445 490.883 5.81055C490.41 5.55664 489.869 5.42969 489.26 5.42969C488.471 5.42969 487.785 5.5918 487.203 5.91602C486.621 6.24023 486.174 6.70898 485.861 7.32227C485.553 7.93164 485.398 8.63672 485.398 9.4375C485.398 10.5156 485.686 11.3438 486.26 11.9219C486.838 12.4961 487.674 12.7832 488.768 12.7832C489.182 12.7832 489.637 12.7383 490.133 12.6484C490.629 12.5547 491.117 12.4199 491.598 12.2441V13.3691C490.762 13.7246 489.834 13.9023 488.814 13.9023C487.33 13.9023 486.172 13.5117 485.34 12.7305C484.512 11.9492 484.098 10.8633 484.098 9.47266C484.098 8.50781 484.309 7.63281 484.73 6.84766C485.156 6.05859 485.76 5.44141 486.541 4.99609C487.326 4.54688 488.229 4.32227 489.248 4.32227C490.107 4.32227 490.875 4.49805 491.551 4.84961C492.227 5.20117 492.748 5.70117 493.115 6.34961C493.482 6.99805 493.666 7.74609 493.666 8.59375ZM487.666 9.32617C487.666 10.1504 488.002 10.5625 488.674 10.5625C489.025 10.5625 489.293 10.4395 489.477 10.1934C489.66 9.94336 489.771 9.53906 489.811 8.98047L489.887 7.68555C489.688 7.64258 489.463 7.62109 489.213 7.62109C488.725 7.62109 488.344 7.77344 488.07 8.07812C487.801 8.38281 487.666 8.79883 487.666 9.32617ZM501.072 13H499.285V9.17383C499.285 8.70117 499.205 8.34766 499.045 8.11328C498.889 7.875 498.641 7.75586 498.301 7.75586C497.844 7.75586 497.512 7.92383 497.305 8.25977C497.098 8.5957 496.994 9.14844 496.994 9.91797V13H495.207V6.44922H496.572L496.812 7.28711H496.912C497.088 6.98633 497.342 6.75195 497.674 6.58398C498.006 6.41211 498.387 6.32617 498.816 6.32617C499.797 6.32617 500.461 6.64648 500.809 7.28711H500.967C501.143 6.98242 501.4 6.74609 501.74 6.57812C502.084 6.41016 502.471 6.32617 502.9 6.32617C503.643 6.32617 504.203 6.51758 504.582 6.90039C504.965 7.2793 505.156 7.88867 505.156 8.72852V13H503.363V9.17383C503.363 8.70117 503.283 8.34766 503.123 8.11328C502.967 7.875 502.719 7.75586 502.379 7.75586C501.941 7.75586 501.613 7.91211 501.395 8.22461C501.18 8.53711 501.072 9.0332 501.072 9.71289V13ZM506.92 4.75586C506.92 4.17383 507.244 3.88281 507.893 3.88281C508.541 3.88281 508.865 4.17383 508.865 4.75586C508.865 5.0332 508.783 5.25 508.619 5.40625C508.459 5.55859 508.217 5.63477 507.893 5.63477C507.244 5.63477 506.92 5.3418 506.92 4.75586ZM508.783 13H506.996V6.44922H508.783V13ZM516.711 13H514.924V9.17383C514.924 8.70117 514.84 8.34766 514.672 8.11328C514.504 7.875 514.236 7.75586 513.869 7.75586C513.369 7.75586 513.008 7.92383 512.785 8.25977C512.562 8.5918 512.451 9.14453 512.451 9.91797V13H510.664V6.44922H512.029L512.27 7.28711H512.369C512.568 6.9707 512.842 6.73242 513.189 6.57227C513.541 6.4082 513.939 6.32617 514.385 6.32617C515.146 6.32617 515.725 6.5332 516.119 6.94727C516.514 7.35742 516.711 7.95117 516.711 8.72852V13ZM520.625 13.1172C519.855 13.1172 519.25 12.8184 518.809 12.2207C518.371 11.623 518.152 10.7949 518.152 9.73633C518.152 8.66211 518.375 7.82617 518.82 7.22852C519.27 6.62695 519.887 6.32617 520.672 6.32617C521.496 6.32617 522.125 6.64648 522.559 7.28711H522.617C522.527 6.79883 522.482 6.36328 522.482 5.98047V3.88281H524.275V13H522.904L522.559 12.1504H522.482C522.076 12.7949 521.457 13.1172 520.625 13.1172ZM521.252 11.6934C521.709 11.6934 522.043 11.5605 522.254 11.2949C522.469 11.0293 522.586 10.5781 522.605 9.94141V9.74805C522.605 9.04492 522.496 8.54102 522.277 8.23633C522.062 7.93164 521.711 7.7793 521.223 7.7793C520.824 7.7793 520.514 7.94922 520.291 8.28906C520.072 8.625 519.963 9.11523 519.963 9.75977C519.963 10.4043 520.074 10.8887 520.297 11.2129C520.52 11.5332 520.838 11.6934 521.252 11.6934ZM529.789 6.32617C530.562 6.32617 531.168 6.62891 531.605 7.23438C532.043 7.83594 532.262 8.66211 532.262 9.71289C532.262 10.7949 532.035 11.6328 531.582 12.2266C531.133 12.8203 530.52 13.1172 529.742 13.1172C528.973 13.1172 528.369 12.8379 527.932 12.2793H527.809L527.51 13H526.145V3.88281H527.932V6.00391C527.932 6.27344 527.908 6.70508 527.861 7.29883H527.932C528.35 6.65039 528.969 6.32617 529.789 6.32617ZM529.215 7.75586C528.773 7.75586 528.451 7.89258 528.248 8.16602C528.045 8.43555 527.939 8.88281 527.932 9.50781V9.70117C527.932 10.4043 528.035 10.9082 528.242 11.2129C528.453 11.5176 528.785 11.6699 529.238 11.6699C529.605 11.6699 529.896 11.502 530.111 11.166C530.33 10.8262 530.439 10.334 530.439 9.68945C530.439 9.04492 530.33 8.5625 530.111 8.24219C529.893 7.91797 529.594 7.75586 529.215 7.75586ZM535.525 13H533.738V3.88281H535.525V13ZM537.33 4.75586C537.33 4.17383 537.654 3.88281 538.303 3.88281C538.951 3.88281 539.275 4.17383 539.275 4.75586C539.275 5.0332 539.193 5.25 539.029 5.40625C538.869 5.55859 538.627 5.63477 538.303 5.63477C537.654 5.63477 537.33 5.3418 537.33 4.75586ZM539.193 13H537.406V6.44922H539.193V13ZM545.645 11.0547C545.645 11.7266 545.41 12.2383 544.941 12.5898C544.477 12.9414 543.779 13.1172 542.85 13.1172C542.373 13.1172 541.967 13.084 541.631 13.0176C541.295 12.9551 540.98 12.8613 540.688 12.7363V11.2598C541.02 11.416 541.393 11.5469 541.807 11.6523C542.225 11.7578 542.592 11.8105 542.908 11.8105C543.557 11.8105 543.881 11.623 543.881 11.248C543.881 11.1074 543.838 10.9941 543.752 10.9082C543.666 10.8184 543.518 10.7188 543.307 10.6094C543.096 10.4961 542.814 10.3652 542.463 10.2168C541.959 10.0059 541.588 9.81055 541.35 9.63086C541.115 9.45117 540.943 9.24609 540.834 9.01562C540.729 8.78125 540.676 8.49414 540.676 8.1543C540.676 7.57227 540.9 7.12305 541.35 6.80664C541.803 6.48633 542.443 6.32617 543.271 6.32617C544.061 6.32617 544.828 6.49805 545.574 6.8418L545.035 8.13086C544.707 7.99023 544.4 7.875 544.115 7.78516C543.83 7.69531 543.539 7.65039 543.242 7.65039C542.715 7.65039 542.451 7.79297 542.451 8.07812C542.451 8.23828 542.535 8.37695 542.703 8.49414C542.875 8.61133 543.248 8.78516 543.822 9.01562C544.334 9.22266 544.709 9.41602 544.947 9.5957C545.186 9.77539 545.361 9.98242 545.475 10.2168C545.588 10.4512 545.645 10.7305 545.645 11.0547ZM549.799 11.6934C550.111 11.6934 550.486 11.625 550.924 11.4883V12.8184C550.479 13.0176 549.932 13.1172 549.283 13.1172C548.568 13.1172 548.047 12.9375 547.719 12.5781C547.395 12.2148 547.232 11.6719 547.232 10.9492V7.79102H546.377V7.03516L547.361 6.4375L547.877 5.05469H549.02V6.44922H550.854V7.79102H549.02V10.9492C549.02 11.2031 549.09 11.3906 549.23 11.5117C549.375 11.6328 549.564 11.6934 549.799 11.6934ZM554.967 7.59766C554.588 7.59766 554.291 7.71875 554.076 7.96094C553.861 8.19922 553.738 8.53906 553.707 8.98047H556.215C556.207 8.53906 556.092 8.19922 555.869 7.96094C555.646 7.71875 555.346 7.59766 554.967 7.59766ZM555.219 13.1172C554.164 13.1172 553.34 12.8262 552.746 12.2441C552.152 11.6621 551.855 10.8379 551.855 9.77148C551.855 8.67383 552.129 7.82617 552.676 7.22852C553.227 6.62695 553.986 6.32617 554.955 6.32617C555.881 6.32617 556.602 6.58984 557.117 7.11719C557.633 7.64453 557.891 8.37305 557.891 9.30273V10.1699H553.666C553.686 10.6777 553.836 11.0742 554.117 11.3594C554.398 11.6445 554.793 11.7871 555.301 11.7871C555.695 11.7871 556.068 11.7461 556.42 11.6641C556.771 11.582 557.139 11.4512 557.521 11.2715V12.6543C557.209 12.8105 556.875 12.9258 556.52 13C556.164 13.0781 555.73 13.1172 555.219 13.1172ZM563 6.32617C563.242 6.32617 563.443 6.34375 563.604 6.37891L563.469 8.05469C563.324 8.01562 563.148 7.99609 562.941 7.99609C562.371 7.99609 561.926 8.14258 561.605 8.43555C561.289 8.72852 561.131 9.13867 561.131 9.66602V13H559.344V6.44922H560.697L560.961 7.55078H561.049C561.252 7.18359 561.525 6.88867 561.869 6.66602C562.217 6.43945 562.594 6.32617 563 6.32617ZM564.541 12.1621C564.541 11.834 564.629 11.5859 564.805 11.418C564.98 11.25 565.236 11.166 565.572 11.166C565.896 11.166 566.146 11.252 566.322 11.4238C566.502 11.5957 566.592 11.8418 566.592 12.1621C566.592 12.4707 566.502 12.7148 566.322 12.8945C566.143 13.0703 565.893 13.1582 565.572 13.1582C565.244 13.1582 564.99 13.0723 564.811 12.9004C564.631 12.7246 564.541 12.4785 564.541 12.1621ZM570.875 13.1172C568.836 13.1172 567.816 11.998 567.816 9.75977C567.816 8.64648 568.094 7.79688 568.648 7.21094C569.203 6.62109 569.998 6.32617 571.033 6.32617C571.791 6.32617 572.471 6.47461 573.072 6.77148L572.545 8.1543C572.264 8.04102 572.002 7.94922 571.76 7.87891C571.518 7.80469 571.275 7.76758 571.033 7.76758C570.104 7.76758 569.639 8.42773 569.639 9.74805C569.639 11.0293 570.104 11.6699 571.033 11.6699C571.377 11.6699 571.695 11.625 571.988 11.5352C572.281 11.4414 572.574 11.2969 572.867 11.1016V12.6309C572.578 12.8145 572.285 12.9414 571.988 13.0117C571.695 13.082 571.324 13.1172 570.875 13.1172ZM575.814 9.71289C575.814 10.3613 575.92 10.8516 576.131 11.1836C576.346 11.5156 576.693 11.6816 577.174 11.6816C577.65 11.6816 577.992 11.5176 578.199 11.1895C578.41 10.8574 578.516 10.3652 578.516 9.71289C578.516 9.06445 578.41 8.57812 578.199 8.25391C577.988 7.92969 577.643 7.76758 577.162 7.76758C576.686 7.76758 576.342 7.92969 576.131 8.25391C575.92 8.57422 575.814 9.06055 575.814 9.71289ZM580.344 9.71289C580.344 10.7793 580.062 11.6133 579.5 12.2148C578.938 12.8164 578.154 13.1172 577.15 13.1172C576.521 13.1172 575.967 12.9805 575.486 12.707C575.006 12.4297 574.637 12.0332 574.379 11.5176C574.121 11.002 573.992 10.4004 573.992 9.71289C573.992 8.64258 574.271 7.81055 574.83 7.2168C575.389 6.62305 576.174 6.32617 577.186 6.32617C577.814 6.32617 578.369 6.46289 578.85 6.73633C579.33 7.00977 579.699 7.40234 579.957 7.91406C580.215 8.42578 580.344 9.02539 580.344 9.71289ZM587.686 13H585.898V9.17383C585.898 8.70117 585.818 8.34766 585.658 8.11328C585.502 7.875 585.254 7.75586 584.914 7.75586C584.457 7.75586 584.125 7.92383 583.918 8.25977C583.711 8.5957 583.607 9.14844 583.607 9.91797V13H581.82V6.44922H583.186L583.426 7.28711H583.525C583.701 6.98633 583.955 6.75195 584.287 6.58398C584.619 6.41211 585 6.32617 585.43 6.32617C586.41 6.32617 587.074 6.64648 587.422 7.28711H587.58C587.756 6.98242 588.014 6.74609 588.354 6.57812C588.697 6.41016 589.084 6.32617 589.514 6.32617C590.256 6.32617 590.816 6.51758 591.195 6.90039C591.578 7.2793 591.77 7.88867 591.77 8.72852V13H589.977V9.17383C589.977 8.70117 589.896 8.34766 589.736 8.11328C589.58 7.875 589.332 7.75586 588.992 7.75586C588.555 7.75586 588.227 7.91211 588.008 8.22461C587.793 8.53711 587.686 9.0332 587.686 9.71289V13Z" fill="#333333" fill-opacity="0.5"/>
</g>
<defs>
<clipPath id="clip0">
<rect width="1440" height="6677" fill="white" transform="translate(-79 -5964)"/>
</clipPath>
</defs>
</svg>
