<svg width="17" height="14" viewBox="0 0 17 14" fill="none" xmlns="http://www.w3.org/2000/svg">
<g clip-path="url(#clip0)">
<rect width="1440" height="6677" transform="translate(-504 -5965)" fill="white"/>
<path d="M-419.297 13.4766C-419.771 12.7839 -420.382 11.9089 -421.129 10.8516C-422.04 9.53906 -422.642 8.65495 -422.934 8.19922C-423.353 7.54297 -423.635 6.99609 -423.781 6.55859C-423.927 6.10286 -424 5.58333 -424 5C-424 4.05208 -423.763 3.17708 -423.289 2.375C-422.815 1.57292 -422.177 0.934896 -421.375 0.460938C-420.573 -0.0130208 -419.698 -0.25 -418.75 -0.25C-417.802 -0.25 -416.927 -0.0130208 -416.125 0.460938C-415.323 0.934896 -414.685 1.57292 -414.211 2.375C-413.737 3.17708 -413.5 4.05208 -413.5 5C-413.5 5.58333 -413.573 6.10286 -413.719 6.55859C-413.865 6.99609 -414.147 7.54297 -414.566 8.19922C-414.858 8.65495 -415.46 9.53906 -416.371 10.8516L-418.203 13.4766C-418.331 13.6589 -418.513 13.75 -418.75 13.75C-418.987 13.75 -419.169 13.6589 -419.297 13.4766ZM-418.75 7.1875C-418.148 7.1875 -417.638 6.97786 -417.219 6.55859C-416.781 6.12109 -416.562 5.60156 -416.562 5C-416.562 4.39844 -416.781 3.88802 -417.219 3.46875C-417.638 3.03125 -418.148 2.8125 -418.75 2.8125C-419.352 2.8125 -419.871 3.03125 -420.309 3.46875C-420.728 3.88802 -420.938 4.39844 -420.938 5C-420.938 5.60156 -420.728 6.12109 -420.309 6.55859C-419.871 6.97786 -419.352 7.1875 -418.75 7.1875ZM-212.133 0.433594L-214.977 -0.222656C-215.122 -0.259115 -215.268 -0.240885 -215.414 -0.167969C-215.56 -0.0950521 -215.66 0.00520833 -215.715 0.132812L-217.027 3.19531C-217.082 3.34115 -217.091 3.48698 -217.055 3.63281C-217.018 3.76042 -216.945 3.86979 -216.836 3.96094L-215.195 5.32812C-215.688 6.38542 -216.353 7.33333 -217.191 8.17188C-218.012 9.01042 -218.96 9.67578 -220.035 10.168L-221.375 8.52734C-221.466 8.39974 -221.585 8.32682 -221.73 8.30859C-221.876 8.27214 -222.013 8.28125 -222.141 8.33594L-225.203 9.64844C-225.349 9.70312 -225.458 9.80339 -225.531 9.94922C-225.604 10.0951 -225.622 10.2409 -225.586 10.3867L-224.93 13.2305C-224.911 13.3945 -224.839 13.5221 -224.711 13.6133C-224.583 13.7044 -224.447 13.75 -224.301 13.75C-222.004 13.75 -219.871 13.1758 -217.902 12.0273C-215.988 10.8971 -214.466 9.375 -213.336 7.46094C-212.188 5.49219 -211.613 3.35938 -211.613 1.0625C-211.613 0.916667 -211.659 0.779948 -211.75 0.652344C-211.841 0.52474 -211.969 0.451823 -212.133 0.433594ZM15.2422 4.97266C15.2969 4.91797 15.3516 4.90885 15.4062 4.94531C15.4792 4.98177 15.5156 5.03646 15.5156 5.10938V10.6875C15.5156 11.0521 15.388 11.362 15.1328 11.6172C14.8776 11.8724 14.5677 12 14.2031 12H2.82812C2.46354 12 2.15365 11.8724 1.89844 11.6172C1.64323 11.362 1.51562 11.0521 1.51562 10.6875V5.10938C1.51562 5.03646 1.54297 4.99089 1.59766 4.97266C1.67057 4.9362 1.73438 4.9362 1.78906 4.97266C2.39062 5.42839 3.79427 6.45833 6 8.0625L6.27344 8.30859C6.71094 8.63672 7.05729 8.8737 7.3125 9.01953C7.75 9.25651 8.15104 9.375 8.51562 9.375C8.88021 9.375 9.28125 9.2474 9.71875 8.99219C9.99219 8.84635 10.3385 8.60938 10.7578 8.28125L11.0312 8.0625C13.1823 6.51302 14.5859 5.48307 15.2422 4.97266ZM8.51562 8.5C8.7526 8.5 9.04427 8.39062 9.39062 8.17188C9.59115 8.0625 9.8737 7.86198 10.2383 7.57031L10.5117 7.37891C12.8086 5.72005 14.349 4.58073 15.1328 3.96094L15.2695 3.85156C15.4336 3.72396 15.5156 3.55078 15.5156 3.33203V2.8125C15.5156 2.44792 15.388 2.13802 15.1328 1.88281C14.8776 1.6276 14.5677 1.5 14.2031 1.5H2.82812C2.46354 1.5 2.15365 1.6276 1.89844 1.88281C1.64323 2.13802 1.51562 2.44792 1.51562 2.8125V3.33203C1.51562 3.55078 1.59766 3.72396 1.76172 3.85156L1.95312 3.98828C2.75521 4.60807 4.27734 5.73828 6.51953 7.37891L6.79297 7.57031C7.15755 7.86198 7.4401 8.0625 7.64062 8.17188C7.98698 8.39062 8.27865 8.5 8.51562 8.5Z" fill="#E8C300"/>
<path d="M-400.551 6.52734C-399.723 6.52734 -399.064 6.75977 -398.576 7.22461C-398.084 7.68945 -397.838 8.32617 -397.838 9.13477C-397.838 10.0918 -398.133 10.8281 -398.723 11.3438C-399.312 11.8594 -400.156 12.1172 -401.254 12.1172C-402.207 12.1172 -402.977 11.9629 -403.562 11.6543V10.0898C-403.254 10.2539 -402.895 10.3887 -402.484 10.4941C-402.074 10.5957 -401.686 10.6465 -401.318 10.6465C-400.213 10.6465 -399.66 10.1934 -399.66 9.28711C-399.66 8.42383 -400.232 7.99219 -401.377 7.99219C-401.584 7.99219 -401.812 8.01367 -402.062 8.05664C-402.312 8.0957 -402.516 8.13867 -402.672 8.18555L-403.393 7.79883L-403.07 3.43359H-398.424V4.96875H-401.482L-401.641 6.65039L-401.436 6.60938C-401.197 6.55469 -400.902 6.52734 -400.551 6.52734ZM-393.596 10.6934C-393.283 10.6934 -392.908 10.625 -392.471 10.4883V11.8184C-392.916 12.0176 -393.463 12.1172 -394.111 12.1172C-394.826 12.1172 -395.348 11.9375 -395.676 11.5781C-396 11.2148 -396.162 10.6719 -396.162 9.94922V6.79102H-397.018V6.03516L-396.033 5.4375L-395.518 4.05469H-394.375V5.44922H-392.541V6.79102H-394.375V9.94922C-394.375 10.2031 -394.305 10.3906 -394.164 10.5117C-394.02 10.6328 -393.83 10.6934 -393.596 10.6934ZM-385.094 12H-386.881V8.17383C-386.881 7.22852 -387.232 6.75586 -387.936 6.75586C-388.436 6.75586 -388.797 6.92578 -389.02 7.26562C-389.242 7.60547 -389.354 8.15625 -389.354 8.91797V12H-391.141V2.88281H-389.354V4.74023C-389.354 4.88477 -389.367 5.22461 -389.395 5.75977L-389.436 6.28711H-389.342C-388.943 5.64648 -388.311 5.32617 -387.443 5.32617C-386.674 5.32617 -386.09 5.5332 -385.691 5.94727C-385.293 6.36133 -385.094 6.95508 -385.094 7.72852V12ZM-379.996 12V3.43359H-378.18V10.5H-374.705V12H-379.996ZM-371.928 8.71289C-371.928 9.36133 -371.822 9.85156 -371.611 10.1836C-371.396 10.5156 -371.049 10.6816 -370.568 10.6816C-370.092 10.6816 -369.75 10.5176 -369.543 10.1895C-369.332 9.85742 -369.227 9.36523 -369.227 8.71289C-369.227 8.06445 -369.332 7.57812 -369.543 7.25391C-369.754 6.92969 -370.1 6.76758 -370.58 6.76758C-371.057 6.76758 -371.4 6.92969 -371.611 7.25391C-371.822 7.57422 -371.928 8.06055 -371.928 8.71289ZM-367.398 8.71289C-367.398 9.7793 -367.68 10.6133 -368.242 11.2148C-368.805 11.8164 -369.588 12.1172 -370.592 12.1172C-371.221 12.1172 -371.775 11.9805 -372.256 11.707C-372.736 11.4297 -373.105 11.0332 -373.363 10.5176C-373.621 10.002 -373.75 9.40039 -373.75 8.71289C-373.75 7.64258 -373.471 6.81055 -372.912 6.2168C-372.354 5.62305 -371.568 5.32617 -370.557 5.32617C-369.928 5.32617 -369.373 5.46289 -368.893 5.73633C-368.412 6.00977 -368.043 6.40234 -367.785 6.91406C-367.527 7.42578 -367.398 8.02539 -367.398 8.71289ZM-359.875 12H-361.662V8.17383C-361.662 7.70117 -361.746 7.34766 -361.914 7.11328C-362.082 6.875 -362.35 6.75586 -362.717 6.75586C-363.217 6.75586 -363.578 6.92383 -363.801 7.25977C-364.023 7.5918 -364.135 8.14453 -364.135 8.91797V12H-365.922V5.44922H-364.557L-364.316 6.28711H-364.217C-364.018 5.9707 -363.744 5.73242 -363.396 5.57227C-363.045 5.4082 -362.646 5.32617 -362.201 5.32617C-361.439 5.32617 -360.861 5.5332 -360.467 5.94727C-360.072 6.35742 -359.875 6.95117 -359.875 7.72852V12ZM-355.961 12.1172C-356.73 12.1172 -357.336 11.8184 -357.777 11.2207C-358.215 10.623 -358.434 9.79492 -358.434 8.73633C-358.434 7.66211 -358.211 6.82617 -357.766 6.22852C-357.316 5.62695 -356.699 5.32617 -355.914 5.32617C-355.09 5.32617 -354.461 5.64648 -354.027 6.28711H-353.969C-354.059 5.79883 -354.104 5.36328 -354.104 4.98047V2.88281H-352.311V12H-353.682L-354.027 11.1504H-354.104C-354.51 11.7949 -355.129 12.1172 -355.961 12.1172ZM-355.334 10.6934C-354.877 10.6934 -354.543 10.5605 -354.332 10.2949C-354.117 10.0293 -354 9.57812 -353.98 8.94141V8.74805C-353.98 8.04492 -354.09 7.54102 -354.309 7.23633C-354.523 6.93164 -354.875 6.7793 -355.363 6.7793C-355.762 6.7793 -356.072 6.94922 -356.295 7.28906C-356.514 7.625 -356.623 8.11523 -356.623 8.75977C-356.623 9.4043 -356.512 9.88867 -356.289 10.2129C-356.066 10.5332 -355.748 10.6934 -355.334 10.6934ZM-349.018 8.71289C-349.018 9.36133 -348.912 9.85156 -348.701 10.1836C-348.486 10.5156 -348.139 10.6816 -347.658 10.6816C-347.182 10.6816 -346.84 10.5176 -346.633 10.1895C-346.422 9.85742 -346.316 9.36523 -346.316 8.71289C-346.316 8.06445 -346.422 7.57812 -346.633 7.25391C-346.844 6.92969 -347.189 6.76758 -347.67 6.76758C-348.146 6.76758 -348.49 6.92969 -348.701 7.25391C-348.912 7.57422 -349.018 8.06055 -349.018 8.71289ZM-344.488 8.71289C-344.488 9.7793 -344.77 10.6133 -345.332 11.2148C-345.895 11.8164 -346.678 12.1172 -347.682 12.1172C-348.311 12.1172 -348.865 11.9805 -349.346 11.707C-349.826 11.4297 -350.195 11.0332 -350.453 10.5176C-350.711 10.002 -350.84 9.40039 -350.84 8.71289C-350.84 7.64258 -350.561 6.81055 -350.002 6.2168C-349.443 5.62305 -348.658 5.32617 -347.646 5.32617C-347.018 5.32617 -346.463 5.46289 -345.982 5.73633C-345.502 6.00977 -345.133 6.40234 -344.875 6.91406C-344.617 7.42578 -344.488 8.02539 -344.488 8.71289ZM-336.965 12H-338.752V8.17383C-338.752 7.70117 -338.836 7.34766 -339.004 7.11328C-339.172 6.875 -339.439 6.75586 -339.807 6.75586C-340.307 6.75586 -340.668 6.92383 -340.891 7.25977C-341.113 7.5918 -341.225 8.14453 -341.225 8.91797V12H-343.012V5.44922H-341.646L-341.406 6.28711H-341.307C-341.107 5.9707 -340.834 5.73242 -340.486 5.57227C-340.135 5.4082 -339.736 5.32617 -339.291 5.32617C-338.529 5.32617 -337.951 5.5332 -337.557 5.94727C-337.162 6.35742 -336.965 6.95117 -336.965 7.72852V12ZM-331.867 3.43359H-329.201C-327.986 3.43359 -327.105 3.60742 -326.559 3.95508C-326.008 4.29883 -325.732 4.84766 -325.732 5.60156C-325.732 6.11328 -325.854 6.5332 -326.096 6.86133C-326.334 7.18945 -326.652 7.38672 -327.051 7.45312V7.51172C-326.508 7.63281 -326.117 7.85938 -325.879 8.19141C-325.637 8.52344 -325.516 8.96484 -325.516 9.51562C-325.516 10.2969 -325.799 10.9062 -326.365 11.3438C-326.928 11.7812 -327.693 12 -328.662 12H-331.867V3.43359ZM-330.051 6.82617H-328.996C-328.504 6.82617 -328.148 6.75 -327.93 6.59766C-327.707 6.44531 -327.596 6.19336 -327.596 5.8418C-327.596 5.51367 -327.717 5.2793 -327.959 5.13867C-328.197 4.99414 -328.576 4.92188 -329.096 4.92188H-330.051V6.82617ZM-330.051 8.26758V10.5H-328.867C-328.367 10.5 -327.998 10.4043 -327.76 10.2129C-327.521 10.0215 -327.402 9.72852 -327.402 9.33398C-327.402 8.62305 -327.91 8.26758 -328.926 8.26758H-330.051ZM-322.521 8.71289C-322.521 9.36133 -322.416 9.85156 -322.205 10.1836C-321.99 10.5156 -321.643 10.6816 -321.162 10.6816C-320.686 10.6816 -320.344 10.5176 -320.137 10.1895C-319.926 9.85742 -319.82 9.36523 -319.82 8.71289C-319.82 8.06445 -319.926 7.57812 -320.137 7.25391C-320.348 6.92969 -320.693 6.76758 -321.174 6.76758C-321.65 6.76758 -321.994 6.92969 -322.205 7.25391C-322.416 7.57422 -322.521 8.06055 -322.521 8.71289ZM-317.992 8.71289C-317.992 9.7793 -318.273 10.6133 -318.836 11.2148C-319.398 11.8164 -320.182 12.1172 -321.186 12.1172C-321.814 12.1172 -322.369 11.9805 -322.85 11.707C-323.33 11.4297 -323.699 11.0332 -323.957 10.5176C-324.215 10.002 -324.344 9.40039 -324.344 8.71289C-324.344 7.64258 -324.064 6.81055 -323.506 6.2168C-322.947 5.62305 -322.162 5.32617 -321.15 5.32617C-320.521 5.32617 -319.967 5.46289 -319.486 5.73633C-319.006 6.00977 -318.637 6.40234 -318.379 6.91406C-318.121 7.42578 -317.992 8.02539 -317.992 8.71289ZM-311.875 12L-312.115 11.1621H-312.209C-312.4 11.4668 -312.672 11.7031 -313.023 11.8711C-313.375 12.0352 -313.775 12.1172 -314.225 12.1172C-314.994 12.1172 -315.574 11.9121 -315.965 11.502C-316.355 11.0879 -316.551 10.4941 -316.551 9.7207V5.44922H-314.764V9.27539C-314.764 9.74805 -314.68 10.1035 -314.512 10.3418C-314.344 10.5762 -314.076 10.6934 -313.709 10.6934C-313.209 10.6934 -312.848 10.5273 -312.625 10.1953C-312.402 9.85938 -312.291 9.30469 -312.291 8.53125V5.44922H-310.504V12H-311.875ZM-306.842 12H-308.629V2.88281H-306.842V12ZM-302.248 6.59766C-302.627 6.59766 -302.924 6.71875 -303.139 6.96094C-303.354 7.19922 -303.477 7.53906 -303.508 7.98047H-301C-301.008 7.53906 -301.123 7.19922 -301.346 6.96094C-301.568 6.71875 -301.869 6.59766 -302.248 6.59766ZM-301.996 12.1172C-303.051 12.1172 -303.875 11.8262 -304.469 11.2441C-305.062 10.6621 -305.359 9.83789 -305.359 8.77148C-305.359 7.67383 -305.086 6.82617 -304.539 6.22852C-303.988 5.62695 -303.229 5.32617 -302.26 5.32617C-301.334 5.32617 -300.613 5.58984 -300.098 6.11719C-299.582 6.64453 -299.324 7.37305 -299.324 8.30273V9.16992H-303.549C-303.529 9.67773 -303.379 10.0742 -303.098 10.3594C-302.816 10.6445 -302.422 10.7871 -301.914 10.7871C-301.52 10.7871 -301.146 10.7461 -300.795 10.6641C-300.443 10.582 -300.076 10.4512 -299.693 10.2715V11.6543C-300.006 11.8105 -300.34 11.9258 -300.695 12C-301.051 12.0781 -301.484 12.1172 -301.996 12.1172ZM-296.312 12L-298.809 5.44922H-296.939L-295.674 9.18164C-295.533 9.6543 -295.445 10.1016 -295.41 10.5234H-295.375C-295.355 10.1484 -295.268 9.70117 -295.111 9.18164L-293.852 5.44922H-291.982L-294.479 12H-296.312ZM-286.879 12L-287.225 11.1094H-287.271C-287.572 11.4883 -287.883 11.752 -288.203 11.9004C-288.52 12.0449 -288.934 12.1172 -289.445 12.1172C-290.074 12.1172 -290.57 11.9375 -290.934 11.5781C-291.293 11.2188 -291.473 10.707 -291.473 10.043C-291.473 9.34766 -291.23 8.83594 -290.746 8.50781C-290.258 8.17578 -289.523 7.99219 -288.543 7.95703L-287.406 7.92188V7.63477C-287.406 6.9707 -287.746 6.63867 -288.426 6.63867C-288.949 6.63867 -289.564 6.79688 -290.271 7.11328L-290.863 5.90625C-290.109 5.51172 -289.273 5.31445 -288.355 5.31445C-287.477 5.31445 -286.803 5.50586 -286.334 5.88867C-285.865 6.27148 -285.631 6.85352 -285.631 7.63477V12H-286.879ZM-287.406 8.96484L-288.098 8.98828C-288.617 9.00391 -289.004 9.09766 -289.258 9.26953C-289.512 9.44141 -289.639 9.70312 -289.639 10.0547C-289.639 10.5586 -289.35 10.8105 -288.771 10.8105C-288.357 10.8105 -288.027 10.6914 -287.781 10.4531C-287.531 10.2148 -287.406 9.89844 -287.406 9.50391V8.96484ZM-280.129 5.32617C-279.887 5.32617 -279.686 5.34375 -279.525 5.37891L-279.66 7.05469C-279.805 7.01562 -279.98 6.99609 -280.188 6.99609C-280.758 6.99609 -281.203 7.14258 -281.523 7.43555C-281.84 7.72852 -281.998 8.13867 -281.998 8.66602V12H-283.785V5.44922H-282.432L-282.168 6.55078H-282.08C-281.877 6.18359 -281.604 5.88867 -281.26 5.66602C-280.912 5.43945 -280.535 5.32617 -280.129 5.32617ZM-276.262 12.1172C-277.031 12.1172 -277.637 11.8184 -278.078 11.2207C-278.516 10.623 -278.734 9.79492 -278.734 8.73633C-278.734 7.66211 -278.512 6.82617 -278.066 6.22852C-277.617 5.62695 -277 5.32617 -276.215 5.32617C-275.391 5.32617 -274.762 5.64648 -274.328 6.28711H-274.27C-274.359 5.79883 -274.404 5.36328 -274.404 4.98047V2.88281H-272.611V12H-273.982L-274.328 11.1504H-274.404C-274.811 11.7949 -275.43 12.1172 -276.262 12.1172ZM-275.635 10.6934C-275.178 10.6934 -274.844 10.5605 -274.633 10.2949C-274.418 10.0293 -274.301 9.57812 -274.281 8.94141V8.74805C-274.281 8.04492 -274.391 7.54102 -274.609 7.23633C-274.824 6.93164 -275.176 6.7793 -275.664 6.7793C-276.062 6.7793 -276.373 6.94922 -276.596 7.28906C-276.814 7.625 -276.924 8.11523 -276.924 8.75977C-276.924 9.4043 -276.812 9.88867 -276.59 10.2129C-276.367 10.5332 -276.049 10.6934 -275.635 10.6934ZM-268.99 10.7402C-269.193 11.5293 -269.537 12.4648 -270.021 13.5469H-271.311C-271.057 12.5078 -270.859 11.5273 -270.719 10.6055H-269.078L-268.99 10.7402ZM-257.031 3.43359V8.97656C-257.031 9.60938 -257.174 10.1641 -257.459 10.6406C-257.74 11.1172 -258.148 11.4824 -258.684 11.7363C-259.219 11.9902 -259.852 12.1172 -260.582 12.1172C-261.684 12.1172 -262.539 11.8359 -263.148 11.2734C-263.758 10.707 -264.062 9.93359 -264.062 8.95312V3.43359H-262.252V8.67773C-262.252 9.33789 -262.119 9.82227 -261.854 10.1309C-261.588 10.4395 -261.148 10.5938 -260.535 10.5938C-259.941 10.5938 -259.512 10.4395 -259.246 10.1309C-258.977 9.81836 -258.842 9.33008 -258.842 8.66602V3.43359H-257.031ZM-255.326 11.1621C-255.326 10.834 -255.238 10.5859 -255.062 10.418C-254.887 10.25 -254.631 10.166 -254.295 10.166C-253.971 10.166 -253.721 10.252 -253.545 10.4238C-253.365 10.5957 -253.275 10.8418 -253.275 11.1621C-253.275 11.4707 -253.365 11.7148 -253.545 11.8945C-253.725 12.0703 -253.975 12.1582 -254.295 12.1582C-254.623 12.1582 -254.877 12.0723 -255.057 11.9004C-255.236 11.7246 -255.326 11.4785 -255.326 11.1621ZM-244.621 12H-246.684L-248.928 8.39062L-249.695 8.94141V12H-251.512V3.43359H-249.695V7.35352L-248.98 6.3457L-246.66 3.43359H-244.645L-247.633 7.22461L-244.621 12ZM-243.936 11.1621C-243.936 10.834 -243.848 10.5859 -243.672 10.418C-243.496 10.25 -243.24 10.166 -242.904 10.166C-242.58 10.166 -242.33 10.252 -242.154 10.4238C-241.975 10.5957 -241.885 10.8418 -241.885 11.1621C-241.885 11.4707 -241.975 11.7148 -242.154 11.8945C-242.334 12.0703 -242.584 12.1582 -242.904 12.1582C-243.232 12.1582 -243.486 12.0723 -243.666 11.9004C-243.846 11.7246 -243.936 11.4785 -243.936 11.1621ZM-199.479 8.41406H-201.746V7.13086H-199.479V4.8457H-198.195V7.13086H-195.928V8.41406H-198.195V10.6699H-199.479V8.41406ZM-188.744 10.2246H-189.775V12H-191.545V10.2246H-195.201V8.96484L-191.445 3.43359H-189.775V8.81836H-188.744V10.2246ZM-191.545 8.81836V7.36523C-191.545 7.12305 -191.535 6.77148 -191.516 6.31055C-191.496 5.84961 -191.48 5.58203 -191.469 5.50781H-191.516C-191.66 5.82812 -191.834 6.14062 -192.037 6.44531L-193.607 8.81836H-191.545ZM-182.129 7.7168C-182.129 9.21289 -182.375 10.3203 -182.867 11.0391C-183.355 11.7578 -184.109 12.1172 -185.129 12.1172C-186.117 12.1172 -186.863 11.7461 -187.367 11.0039C-187.867 10.2617 -188.117 9.16602 -188.117 7.7168C-188.117 6.20508 -187.873 5.0918 -187.385 4.37695C-186.896 3.6582 -186.145 3.29883 -185.129 3.29883C-184.141 3.29883 -183.395 3.67383 -182.891 4.42383C-182.383 5.17383 -182.129 6.27148 -182.129 7.7168ZM-186.318 7.7168C-186.318 8.76758 -186.229 9.52148 -186.049 9.97852C-185.865 10.4316 -185.559 10.6582 -185.129 10.6582C-184.707 10.6582 -184.402 10.4277 -184.215 9.9668C-184.027 9.50586 -183.934 8.75586 -183.934 7.7168C-183.934 6.66602 -184.029 5.91211 -184.221 5.45508C-184.408 4.99414 -184.711 4.76367 -185.129 4.76367C-185.555 4.76367 -185.859 4.99414 -186.043 5.45508C-186.227 5.91211 -186.318 6.66602 -186.318 7.7168ZM-177.248 12L-174.031 4.96875H-178.256V3.44531H-172.109V4.58203L-175.35 12H-177.248ZM-165.254 12H-171.242V10.7402L-169.092 8.56641C-168.455 7.91406 -168.039 7.46289 -167.844 7.21289C-167.648 6.95898 -167.508 6.72461 -167.422 6.50977C-167.336 6.29492 -167.293 6.07227 -167.293 5.8418C-167.293 5.49805 -167.389 5.24219 -167.58 5.07422C-167.768 4.90625 -168.02 4.82227 -168.336 4.82227C-168.668 4.82227 -168.99 4.89844 -169.303 5.05078C-169.615 5.20312 -169.941 5.41992 -170.281 5.70117L-171.266 4.53516C-170.844 4.17578 -170.494 3.92188 -170.217 3.77344C-169.939 3.625 -169.637 3.51172 -169.309 3.43359C-168.98 3.35156 -168.613 3.31055 -168.207 3.31055C-167.672 3.31055 -167.199 3.4082 -166.789 3.60352C-166.379 3.79883 -166.061 4.07227 -165.834 4.42383C-165.607 4.77539 -165.494 5.17773 -165.494 5.63086C-165.494 6.02539 -165.564 6.39648 -165.705 6.74414C-165.842 7.08789 -166.057 7.44141 -166.35 7.80469C-166.639 8.16797 -167.15 8.68555 -167.885 9.35742L-168.986 10.3945V10.4766H-165.254V12ZM-158.434 7.08984C-158.434 8.77734 -158.789 10.0371 -159.5 10.8691C-160.211 11.7012 -161.287 12.1172 -162.729 12.1172C-163.236 12.1172 -163.621 12.0898 -163.883 12.0352V10.582C-163.555 10.6641 -163.211 10.7051 -162.852 10.7051C-162.246 10.7051 -161.748 10.6172 -161.357 10.4414C-160.967 10.2617 -160.668 9.98242 -160.461 9.60352C-160.254 9.2207 -160.135 8.69531 -160.104 8.02734H-160.174C-160.4 8.39453 -160.662 8.65234 -160.959 8.80078C-161.256 8.94922 -161.627 9.02344 -162.072 9.02344C-162.818 9.02344 -163.406 8.78516 -163.836 8.30859C-164.266 7.82812 -164.48 7.16211 -164.48 6.31055C-164.48 5.39258 -164.221 4.66797 -163.701 4.13672C-163.178 3.60156 -162.467 3.33398 -161.568 3.33398C-160.936 3.33398 -160.383 3.48242 -159.91 3.7793C-159.434 4.07617 -159.068 4.50781 -158.814 5.07422C-158.561 5.63672 -158.434 6.30859 -158.434 7.08984ZM-161.533 4.78711C-161.908 4.78711 -162.201 4.91602 -162.412 5.17383C-162.623 5.43164 -162.729 5.80273 -162.729 6.28711C-162.729 6.70117 -162.633 7.0293 -162.441 7.27148C-162.25 7.51367 -161.959 7.63477 -161.568 7.63477C-161.201 7.63477 -160.887 7.51562 -160.625 7.27734C-160.363 7.03516 -160.232 6.75781 -160.232 6.44531C-160.232 5.98047 -160.355 5.58789 -160.602 5.26758C-160.844 4.94727 -161.154 4.78711 -161.533 4.78711ZM-149.938 12H-151.748V7.04297L-151.73 6.22852L-151.701 5.33789C-152.002 5.63867 -152.211 5.83594 -152.328 5.92969L-153.312 6.7207L-154.186 5.63086L-151.426 3.43359H-149.938V12ZM-141.904 5.34961C-141.904 5.88477 -142.066 6.33984 -142.391 6.71484C-142.715 7.08984 -143.17 7.34766 -143.756 7.48828V7.52344C-143.064 7.60938 -142.541 7.82031 -142.186 8.15625C-141.83 8.48828 -141.652 8.9375 -141.652 9.50391C-141.652 10.3281 -141.951 10.9707 -142.549 11.4316C-143.146 11.8887 -144 12.1172 -145.109 12.1172C-146.039 12.1172 -146.863 11.9629 -147.582 11.6543V10.1133C-147.25 10.2812 -146.885 10.418 -146.486 10.5234C-146.088 10.6289 -145.693 10.6816 -145.303 10.6816C-144.705 10.6816 -144.264 10.5801 -143.979 10.377C-143.693 10.1738 -143.551 9.84766 -143.551 9.39844C-143.551 8.99609 -143.715 8.71094 -144.043 8.54297C-144.371 8.375 -144.895 8.29102 -145.613 8.29102H-146.264V6.90234H-145.602C-144.938 6.90234 -144.453 6.81641 -144.148 6.64453C-143.84 6.46875 -143.686 6.16992 -143.686 5.74805C-143.686 5.09961 -144.092 4.77539 -144.904 4.77539C-145.186 4.77539 -145.473 4.82227 -145.766 4.91602C-146.055 5.00977 -146.377 5.17188 -146.732 5.40234L-147.57 4.1543C-146.789 3.5918 -145.857 3.31055 -144.775 3.31055C-143.889 3.31055 -143.189 3.49023 -142.678 3.84961C-142.162 4.20898 -141.904 4.70898 -141.904 5.34961ZM-136.227 12H-138.037V7.04297L-138.02 6.22852L-137.99 5.33789C-138.291 5.63867 -138.5 5.83594 -138.617 5.92969L-139.602 6.7207L-140.475 5.63086L-137.715 3.43359H-136.227V12ZM-130.789 8.36133C-130.789 6.66602 -130.432 5.4043 -129.717 4.57617C-128.998 3.74805 -127.924 3.33398 -126.494 3.33398C-126.006 3.33398 -125.623 3.36328 -125.346 3.42188V4.86914C-125.693 4.79102 -126.037 4.75195 -126.377 4.75195C-126.998 4.75195 -127.506 4.8457 -127.9 5.0332C-128.291 5.2207 -128.584 5.49805 -128.779 5.86523C-128.975 6.23242 -129.09 6.75391 -129.125 7.42969H-129.049C-128.662 6.76562 -128.043 6.43359 -127.191 6.43359C-126.426 6.43359 -125.826 6.67383 -125.393 7.1543C-124.959 7.63477 -124.742 8.29883 -124.742 9.14648C-124.742 10.0605 -125 10.7852 -125.516 11.3203C-126.031 11.8516 -126.746 12.1172 -127.66 12.1172C-128.293 12.1172 -128.846 11.9707 -129.318 11.6777C-129.787 11.3848 -130.15 10.957 -130.408 10.3945C-130.662 9.83203 -130.789 9.1543 -130.789 8.36133ZM-127.695 10.6699C-127.309 10.6699 -127.012 10.541 -126.805 10.2832C-126.598 10.0215 -126.494 9.65039 -126.494 9.16992C-126.494 8.75195 -126.592 8.42383 -126.787 8.18555C-126.979 7.94336 -127.27 7.82227 -127.66 7.82227C-128.027 7.82227 -128.342 7.94141 -128.604 8.17969C-128.861 8.41797 -128.99 8.69531 -128.99 9.01172C-128.99 9.47656 -128.869 9.86914 -128.627 10.1895C-128.381 10.5098 -128.07 10.6699 -127.695 10.6699ZM-118.221 5.34961C-118.221 5.88477 -118.383 6.33984 -118.707 6.71484C-119.031 7.08984 -119.486 7.34766 -120.072 7.48828V7.52344C-119.381 7.60938 -118.857 7.82031 -118.502 8.15625C-118.146 8.48828 -117.969 8.9375 -117.969 9.50391C-117.969 10.3281 -118.268 10.9707 -118.865 11.4316C-119.463 11.8887 -120.316 12.1172 -121.426 12.1172C-122.355 12.1172 -123.18 11.9629 -123.898 11.6543V10.1133C-123.566 10.2812 -123.201 10.418 -122.803 10.5234C-122.404 10.6289 -122.01 10.6816 -121.619 10.6816C-121.021 10.6816 -120.58 10.5801 -120.295 10.377C-120.01 10.1738 -119.867 9.84766 -119.867 9.39844C-119.867 8.99609 -120.031 8.71094 -120.359 8.54297C-120.688 8.375 -121.211 8.29102 -121.93 8.29102H-122.58V6.90234H-121.918C-121.254 6.90234 -120.77 6.81641 -120.465 6.64453C-120.156 6.46875 -120.002 6.16992 -120.002 5.74805C-120.002 5.09961 -120.408 4.77539 -121.221 4.77539C-121.502 4.77539 -121.789 4.82227 -122.082 4.91602C-122.371 5.00977 -122.693 5.17188 -123.049 5.40234L-123.887 4.1543C-123.105 3.5918 -122.174 3.31055 -121.092 3.31055C-120.205 3.31055 -119.506 3.49023 -118.994 3.84961C-118.479 4.20898 -118.221 4.70898 -118.221 5.34961ZM-116.17 12L-112.953 4.96875H-117.178V3.44531H-111.031V4.58203L-114.271 12H-116.17ZM-105.746 3.43359L-108.939 12H-110.562L-107.369 3.43359H-105.746ZM-102.904 8.41406H-105.172V7.13086H-102.904V4.8457H-101.621V7.13086H-99.3535V8.41406H-101.621V10.6699H-102.904V8.41406ZM-92.1699 10.2246H-93.2012V12H-94.9707V10.2246H-98.627V8.96484L-94.8711 3.43359H-93.2012V8.81836H-92.1699V10.2246ZM-94.9707 8.81836V7.36523C-94.9707 7.12305 -94.9609 6.77148 -94.9414 6.31055C-94.9219 5.84961 -94.9062 5.58203 -94.8945 5.50781H-94.9414C-95.0859 5.82812 -95.2598 6.14062 -95.4629 6.44531L-97.0332 8.81836H-94.9707ZM-85.5547 7.7168C-85.5547 9.21289 -85.8008 10.3203 -86.293 11.0391C-86.7812 11.7578 -87.5352 12.1172 -88.5547 12.1172C-89.543 12.1172 -90.2891 11.7461 -90.793 11.0039C-91.293 10.2617 -91.543 9.16602 -91.543 7.7168C-91.543 6.20508 -91.2988 5.0918 -90.8105 4.37695C-90.3223 3.6582 -89.5703 3.29883 -88.5547 3.29883C-87.5664 3.29883 -86.8203 3.67383 -86.3164 4.42383C-85.8086 5.17383 -85.5547 6.27148 -85.5547 7.7168ZM-89.7441 7.7168C-89.7441 8.76758 -89.6543 9.52148 -89.4746 9.97852C-89.291 10.4316 -88.9844 10.6582 -88.5547 10.6582C-88.1328 10.6582 -87.8281 10.4277 -87.6406 9.9668C-87.4531 9.50586 -87.3594 8.75586 -87.3594 7.7168C-87.3594 6.66602 -87.4551 5.91211 -87.6465 5.45508C-87.834 4.99414 -88.1367 4.76367 -88.5547 4.76367C-88.9805 4.76367 -89.2852 4.99414 -89.4688 5.45508C-89.6523 5.91211 -89.7441 6.66602 -89.7441 7.7168ZM-80.6738 12L-77.457 4.96875H-81.6816V3.44531H-75.5352V4.58203L-78.7754 12H-80.6738ZM-68.6797 12H-74.668V10.7402L-72.5176 8.56641C-71.8809 7.91406 -71.4648 7.46289 -71.2695 7.21289C-71.0742 6.95898 -70.9336 6.72461 -70.8477 6.50977C-70.7617 6.29492 -70.7188 6.07227 -70.7188 5.8418C-70.7188 5.49805 -70.8145 5.24219 -71.0059 5.07422C-71.1934 4.90625 -71.4453 4.82227 -71.7617 4.82227C-72.0938 4.82227 -72.416 4.89844 -72.7285 5.05078C-73.041 5.20312 -73.3672 5.41992 -73.707 5.70117L-74.6914 4.53516C-74.2695 4.17578 -73.9199 3.92188 -73.6426 3.77344C-73.3652 3.625 -73.0625 3.51172 -72.7344 3.43359C-72.4062 3.35156 -72.0391 3.31055 -71.6328 3.31055C-71.0977 3.31055 -70.625 3.4082 -70.2148 3.60352C-69.8047 3.79883 -69.4863 4.07227 -69.2598 4.42383C-69.0332 4.77539 -68.9199 5.17773 -68.9199 5.63086C-68.9199 6.02539 -68.9902 6.39648 -69.1309 6.74414C-69.2676 7.08789 -69.4824 7.44141 -69.7754 7.80469C-70.0645 8.16797 -70.5762 8.68555 -71.3105 9.35742L-72.4121 10.3945V10.4766H-68.6797V12ZM-67.8711 8.36133C-67.8711 6.66602 -67.5137 5.4043 -66.7988 4.57617C-66.0801 3.74805 -65.0059 3.33398 -63.5762 3.33398C-63.0879 3.33398 -62.7051 3.36328 -62.4277 3.42188V4.86914C-62.7754 4.79102 -63.1191 4.75195 -63.459 4.75195C-64.0801 4.75195 -64.5879 4.8457 -64.9824 5.0332C-65.373 5.2207 -65.666 5.49805 -65.8613 5.86523C-66.0566 6.23242 -66.1719 6.75391 -66.207 7.42969H-66.1309C-65.7441 6.76562 -65.125 6.43359 -64.2734 6.43359C-63.5078 6.43359 -62.9082 6.67383 -62.4746 7.1543C-62.041 7.63477 -61.8242 8.29883 -61.8242 9.14648C-61.8242 10.0605 -62.082 10.7852 -62.5977 11.3203C-63.1133 11.8516 -63.8281 12.1172 -64.7422 12.1172C-65.375 12.1172 -65.9277 11.9707 -66.4004 11.6777C-66.8691 11.3848 -67.2324 10.957 -67.4902 10.3945C-67.7441 9.83203 -67.8711 9.1543 -67.8711 8.36133ZM-64.7773 10.6699C-64.3906 10.6699 -64.0938 10.541 -63.8867 10.2832C-63.6797 10.0215 -63.5762 9.65039 -63.5762 9.16992C-63.5762 8.75195 -63.6738 8.42383 -63.8691 8.18555C-64.0605 7.94336 -64.3516 7.82227 -64.7422 7.82227C-65.1094 7.82227 -65.4238 7.94141 -65.6855 8.17969C-65.9434 8.41797 -66.0723 8.69531 -66.0723 9.01172C-66.0723 9.47656 -65.9512 9.86914 -65.709 10.1895C-65.4629 10.5098 -65.1523 10.6699 -64.7773 10.6699ZM-51.6582 10.2246H-52.6895V12H-54.459V10.2246H-58.1152V8.96484L-54.3594 3.43359H-52.6895V8.81836H-51.6582V10.2246ZM-54.459 8.81836V7.36523C-54.459 7.12305 -54.4492 6.77148 -54.4297 6.31055C-54.4102 5.84961 -54.3945 5.58203 -54.3828 5.50781H-54.4297C-54.5742 5.82812 -54.748 6.14062 -54.9512 6.44531L-56.5215 8.81836H-54.459ZM-47.8672 6.52734C-47.0391 6.52734 -46.3809 6.75977 -45.8926 7.22461C-45.4004 7.68945 -45.1543 8.32617 -45.1543 9.13477C-45.1543 10.0918 -45.4492 10.8281 -46.0391 11.3438C-46.6289 11.8594 -47.4727 12.1172 -48.5703 12.1172C-49.5234 12.1172 -50.293 11.9629 -50.8789 11.6543V10.0898C-50.5703 10.2539 -50.2109 10.3887 -49.8008 10.4941C-49.3906 10.5957 -49.002 10.6465 -48.6348 10.6465C-47.5293 10.6465 -46.9766 10.1934 -46.9766 9.28711C-46.9766 8.42383 -47.5488 7.99219 -48.6934 7.99219C-48.9004 7.99219 -49.1289 8.01367 -49.3789 8.05664C-49.6289 8.0957 -49.832 8.13867 -49.9883 8.18555L-50.709 7.79883L-50.3867 3.43359H-45.7402V4.96875H-48.7988L-48.957 6.65039L-48.752 6.60938C-48.5137 6.55469 -48.2188 6.52734 -47.8672 6.52734ZM-41.1758 3.32227C-40.3555 3.32227 -39.6953 3.50977 -39.1953 3.88477C-38.6914 4.25586 -38.4395 4.75781 -38.4395 5.39062C-38.4395 5.82812 -38.5605 6.21875 -38.8027 6.5625C-39.0449 6.90234 -39.4355 7.20703 -39.9746 7.47656C-39.334 7.82031 -38.875 8.17969 -38.5977 8.55469C-38.3164 8.92578 -38.1758 9.33398 -38.1758 9.7793C-38.1758 10.4824 -38.4512 11.0488 -39.002 11.4785C-39.5527 11.9043 -40.2773 12.1172 -41.1758 12.1172C-42.1133 12.1172 -42.8496 11.918 -43.3848 11.5195C-43.9199 11.1211 -44.1875 10.5566 -44.1875 9.82617C-44.1875 9.33789 -44.0586 8.9043 -43.8008 8.52539C-43.5391 8.14648 -43.1211 7.8125 -42.5469 7.52344C-43.0352 7.21484 -43.3867 6.88477 -43.6016 6.5332C-43.8164 6.18164 -43.9238 5.79688 -43.9238 5.37891C-43.9238 4.76562 -43.6699 4.26953 -43.1621 3.89062C-42.6543 3.51172 -41.9922 3.32227 -41.1758 3.32227ZM-42.5117 9.7207C-42.5117 10.0566 -42.3945 10.3184 -42.1602 10.5059C-41.9258 10.6934 -41.6055 10.7871 -41.1992 10.7871C-40.75 10.7871 -40.4141 10.6914 -40.1914 10.5C-39.9688 10.3047 -39.8574 10.0488 -39.8574 9.73242C-39.8574 9.4707 -39.9688 9.22656 -40.1914 9C-40.4102 8.76953 -40.7676 8.52539 -41.2637 8.26758C-42.0957 8.65039 -42.5117 9.13477 -42.5117 9.7207ZM-41.1875 4.64648C-41.4961 4.64648 -41.7461 4.72656 -41.9375 4.88672C-42.125 5.04297 -42.2188 5.25391 -42.2188 5.51953C-42.2188 5.75391 -42.1445 5.96484 -41.9961 6.15234C-41.8438 6.33594 -41.5703 6.52539 -41.1758 6.7207C-40.793 6.54102 -40.5254 6.35742 -40.373 6.16992C-40.2207 5.98242 -40.1445 5.76562 -40.1445 5.51953C-40.1445 5.25 -40.2422 5.03711 -40.4375 4.88086C-40.6328 4.72461 -40.8828 4.64648 -41.1875 4.64648ZM-33.3066 12L-30.0898 4.96875H-34.3145V3.44531H-28.168V4.58203L-31.4082 12H-33.3066ZM-24.3477 3.32227C-23.5273 3.32227 -22.8672 3.50977 -22.3672 3.88477C-21.8633 4.25586 -21.6113 4.75781 -21.6113 5.39062C-21.6113 5.82812 -21.7324 6.21875 -21.9746 6.5625C-22.2168 6.90234 -22.6074 7.20703 -23.1465 7.47656C-22.5059 7.82031 -22.0469 8.17969 -21.7695 8.55469C-21.4883 8.92578 -21.3477 9.33398 -21.3477 9.7793C-21.3477 10.4824 -21.623 11.0488 -22.1738 11.4785C-22.7246 11.9043 -23.4492 12.1172 -24.3477 12.1172C-25.2852 12.1172 -26.0215 11.918 -26.5566 11.5195C-27.0918 11.1211 -27.3594 10.5566 -27.3594 9.82617C-27.3594 9.33789 -27.2305 8.9043 -26.9727 8.52539C-26.7109 8.14648 -26.293 7.8125 -25.7188 7.52344C-26.207 7.21484 -26.5586 6.88477 -26.7734 6.5332C-26.9883 6.18164 -27.0957 5.79688 -27.0957 5.37891C-27.0957 4.76562 -26.8418 4.26953 -26.334 3.89062C-25.8262 3.51172 -25.1641 3.32227 -24.3477 3.32227ZM-25.6836 9.7207C-25.6836 10.0566 -25.5664 10.3184 -25.332 10.5059C-25.0977 10.6934 -24.7773 10.7871 -24.3711 10.7871C-23.9219 10.7871 -23.5859 10.6914 -23.3633 10.5C-23.1406 10.3047 -23.0293 10.0488 -23.0293 9.73242C-23.0293 9.4707 -23.1406 9.22656 -23.3633 9C-23.582 8.76953 -23.9395 8.52539 -24.4355 8.26758C-25.2676 8.65039 -25.6836 9.13477 -25.6836 9.7207ZM-24.3594 4.64648C-24.668 4.64648 -24.918 4.72656 -25.1094 4.88672C-25.2969 5.04297 -25.3906 5.25391 -25.3906 5.51953C-25.3906 5.75391 -25.3164 5.96484 -25.168 6.15234C-25.0156 6.33594 -24.7422 6.52539 -24.3477 6.7207C-23.9648 6.54102 -23.6973 6.35742 -23.5449 6.16992C-23.3926 5.98242 -23.3164 5.76562 -23.3164 5.51953C-23.3164 5.25 -23.4141 5.03711 -23.6094 4.88086C-23.8047 4.72461 -24.0547 4.64648 -24.3594 4.64648ZM-14.457 12H-20.4453V10.7402L-18.2949 8.56641C-17.6582 7.91406 -17.2422 7.46289 -17.0469 7.21289C-16.8516 6.95898 -16.7109 6.72461 -16.625 6.50977C-16.5391 6.29492 -16.4961 6.07227 -16.4961 5.8418C-16.4961 5.49805 -16.5918 5.24219 -16.7832 5.07422C-16.9707 4.90625 -17.2227 4.82227 -17.5391 4.82227C-17.8711 4.82227 -18.1934 4.89844 -18.5059 5.05078C-18.8184 5.20312 -19.1445 5.41992 -19.4844 5.70117L-20.4688 4.53516C-20.0469 4.17578 -19.6973 3.92188 -19.4199 3.77344C-19.1426 3.625 -18.8398 3.51172 -18.5117 3.43359C-18.1836 3.35156 -17.8164 3.31055 -17.4102 3.31055C-16.875 3.31055 -16.4023 3.4082 -15.9922 3.60352C-15.582 3.79883 -15.2637 4.07227 -15.0371 4.42383C-14.8105 4.77539 -14.6973 5.17773 -14.6973 5.63086C-14.6973 6.02539 -14.7676 6.39648 -14.9082 6.74414C-15.0449 7.08789 -15.2598 7.44141 -15.5527 7.80469C-15.8418 8.16797 -16.3535 8.68555 -17.0879 9.35742L-18.1895 10.3945V10.4766H-14.457V12ZM27.2285 8.71289C27.2285 9.36133 27.334 9.85156 27.5449 10.1836C27.7598 10.5156 28.1074 10.6816 28.5879 10.6816C29.0645 10.6816 29.4062 10.5176 29.6133 10.1895C29.8242 9.85742 29.9297 9.36523 29.9297 8.71289C29.9297 8.06445 29.8242 7.57812 29.6133 7.25391C29.4023 6.92969 29.0566 6.76758 28.5762 6.76758C28.0996 6.76758 27.7559 6.92969 27.5449 7.25391C27.334 7.57422 27.2285 8.06055 27.2285 8.71289ZM31.7578 8.71289C31.7578 9.7793 31.4766 10.6133 30.9141 11.2148C30.3516 11.8164 29.5684 12.1172 28.5645 12.1172C27.9355 12.1172 27.3809 11.9805 26.9004 11.707C26.4199 11.4297 26.0508 11.0332 25.793 10.5176C25.5352 10.002 25.4062 9.40039 25.4062 8.71289C25.4062 7.64258 25.6855 6.81055 26.2441 6.2168C26.8027 5.62305 27.5879 5.32617 28.5996 5.32617C29.2285 5.32617 29.7832 5.46289 30.2637 5.73633C30.7441 6.00977 31.1133 6.40234 31.3711 6.91406C31.6289 7.42578 31.7578 8.02539 31.7578 8.71289ZM36.8555 6.79102H35.3086V12H33.5215V6.79102H32.5371V5.92969L33.5215 5.44922V4.96875C33.5215 4.22266 33.7051 3.67773 34.0723 3.33398C34.4395 2.99023 35.0273 2.81836 35.8359 2.81836C36.4531 2.81836 37.002 2.91016 37.4824 3.09375L37.0254 4.40625C36.666 4.29297 36.334 4.23633 36.0293 4.23633C35.7754 4.23633 35.5918 4.3125 35.4785 4.46484C35.3652 4.61328 35.3086 4.80469 35.3086 5.03906V5.44922H36.8555V6.79102ZM41.502 6.79102H39.9551V12H38.168V6.79102H37.1836V5.92969L38.168 5.44922V4.96875C38.168 4.22266 38.3516 3.67773 38.7188 3.33398C39.0859 2.99023 39.6738 2.81836 40.4824 2.81836C41.0996 2.81836 41.6484 2.91016 42.1289 3.09375L41.6719 4.40625C41.3125 4.29297 40.9805 4.23633 40.6758 4.23633C40.4219 4.23633 40.2383 4.3125 40.125 4.46484C40.0117 4.61328 39.9551 4.80469 39.9551 5.03906V5.44922H41.502V6.79102ZM42.4336 3.75586C42.4336 3.17383 42.7578 2.88281 43.4062 2.88281C44.0547 2.88281 44.3789 3.17383 44.3789 3.75586C44.3789 4.0332 44.2969 4.25 44.1328 4.40625C43.9727 4.55859 43.7305 4.63477 43.4062 4.63477C42.7578 4.63477 42.4336 4.3418 42.4336 3.75586ZM44.2969 12H42.5098V5.44922H44.2969V12ZM48.832 12.1172C46.793 12.1172 45.7734 10.998 45.7734 8.75977C45.7734 7.64648 46.0508 6.79688 46.6055 6.21094C47.1602 5.62109 47.9551 5.32617 48.9902 5.32617C49.748 5.32617 50.4277 5.47461 51.0293 5.77148L50.502 7.1543C50.2207 7.04102 49.959 6.94922 49.7168 6.87891C49.4746 6.80469 49.2324 6.76758 48.9902 6.76758C48.0605 6.76758 47.5957 7.42773 47.5957 8.74805C47.5957 10.0293 48.0605 10.6699 48.9902 10.6699C49.334 10.6699 49.6523 10.625 49.9453 10.5352C50.2383 10.4414 50.5312 10.2969 50.8242 10.1016V11.6309C50.5352 11.8145 50.2422 11.9414 49.9453 12.0117C49.6523 12.082 49.2812 12.1172 48.832 12.1172ZM55.0605 6.59766C54.6816 6.59766 54.3848 6.71875 54.1699 6.96094C53.9551 7.19922 53.832 7.53906 53.8008 7.98047H56.3086C56.3008 7.53906 56.1855 7.19922 55.9629 6.96094C55.7402 6.71875 55.4395 6.59766 55.0605 6.59766ZM55.3125 12.1172C54.2578 12.1172 53.4336 11.8262 52.8398 11.2441C52.2461 10.6621 51.9492 9.83789 51.9492 8.77148C51.9492 7.67383 52.2227 6.82617 52.7695 6.22852C53.3203 5.62695 54.0801 5.32617 55.0488 5.32617C55.9746 5.32617 56.6953 5.58984 57.2109 6.11719C57.7266 6.64453 57.9844 7.37305 57.9844 8.30273V9.16992H53.7598C53.7793 9.67773 53.9297 10.0742 54.2109 10.3594C54.4922 10.6445 54.8867 10.7871 55.3945 10.7871C55.7891 10.7871 56.1621 10.7461 56.5137 10.6641C56.8652 10.582 57.2324 10.4512 57.6152 10.2715V11.6543C57.3027 11.8105 56.9688 11.9258 56.6133 12C56.2578 12.0781 55.8242 12.1172 55.3125 12.1172ZM68.666 7.59375C68.666 8.15625 68.5762 8.67188 68.3965 9.14062C68.2168 9.60547 67.9629 9.9707 67.6348 10.2363C67.3066 10.502 66.9258 10.6348 66.4922 10.6348C66.2031 10.6348 65.9473 10.5664 65.7246 10.4297C65.502 10.2891 65.3418 10.1055 65.2441 9.87891H65.1504C64.7285 10.3828 64.1914 10.6348 63.5391 10.6348C62.8477 10.6348 62.3027 10.4277 61.9043 10.0137C61.5059 9.5957 61.3066 9.02539 61.3066 8.30273C61.3066 7.47852 61.5684 6.81445 62.0918 6.31055C62.6152 5.80664 63.2988 5.55469 64.1426 5.55469C64.4785 5.55469 64.8477 5.58789 65.25 5.6543C65.6562 5.7168 65.9902 5.79297 66.252 5.88281L66.1172 8.74805C66.1172 9.29102 66.2656 9.5625 66.5625 9.5625C66.8125 9.5625 67.0117 9.38086 67.1602 9.01758C67.3086 8.65039 67.3828 8.17188 67.3828 7.58203C67.3828 6.95312 67.252 6.39844 66.9902 5.91797C66.7285 5.43359 66.3594 5.06445 65.8828 4.81055C65.4102 4.55664 64.8691 4.42969 64.2598 4.42969C63.4707 4.42969 62.7852 4.5918 62.2031 4.91602C61.6211 5.24023 61.1738 5.70898 60.8613 6.32227C60.5527 6.93164 60.3984 7.63672 60.3984 8.4375C60.3984 9.51562 60.6855 10.3438 61.2598 10.9219C61.8379 11.4961 62.6738 11.7832 63.7676 11.7832C64.1816 11.7832 64.6367 11.7383 65.1328 11.6484C65.6289 11.5547 66.1172 11.4199 66.5977 11.2441V12.3691C65.7617 12.7246 64.834 12.9023 63.8145 12.9023C62.3301 12.9023 61.1719 12.5117 60.3398 11.7305C59.5117 10.9492 59.0977 9.86328 59.0977 8.47266C59.0977 7.50781 59.3086 6.63281 59.7305 5.84766C60.1562 5.05859 60.7598 4.44141 61.541 3.99609C62.3262 3.54688 63.2285 3.32227 64.248 3.32227C65.1074 3.32227 65.875 3.49805 66.5508 3.84961C67.2266 4.20117 67.748 4.70117 68.1152 5.34961C68.4824 5.99805 68.666 6.74609 68.666 7.59375ZM62.666 8.32617C62.666 9.15039 63.002 9.5625 63.6738 9.5625C64.0254 9.5625 64.293 9.43945 64.4766 9.19336C64.6602 8.94336 64.7715 8.53906 64.8105 7.98047L64.8867 6.68555C64.6875 6.64258 64.4629 6.62109 64.2129 6.62109C63.7246 6.62109 63.3438 6.77344 63.0703 7.07812C62.8008 7.38281 62.666 7.79883 62.666 8.32617ZM76.0723 12H74.2852V8.17383C74.2852 7.70117 74.2051 7.34766 74.0449 7.11328C73.8887 6.875 73.6406 6.75586 73.3008 6.75586C72.8438 6.75586 72.5117 6.92383 72.3047 7.25977C72.0977 7.5957 71.9941 8.14844 71.9941 8.91797V12H70.207V5.44922H71.5723L71.8125 6.28711H71.9121C72.0879 5.98633 72.3418 5.75195 72.6738 5.58398C73.0059 5.41211 73.3867 5.32617 73.8164 5.32617C74.7969 5.32617 75.4609 5.64648 75.8086 6.28711H75.9668C76.1426 5.98242 76.4004 5.74609 76.7402 5.57812C77.084 5.41016 77.4707 5.32617 77.9004 5.32617C78.6426 5.32617 79.2031 5.51758 79.582 5.90039C79.9648 6.2793 80.1562 6.88867 80.1562 7.72852V12H78.3633V8.17383C78.3633 7.70117 78.2832 7.34766 78.123 7.11328C77.9668 6.875 77.7188 6.75586 77.3789 6.75586C76.9414 6.75586 76.6133 6.91211 76.3945 7.22461C76.1797 7.53711 76.0723 8.0332 76.0723 8.71289V12ZM81.9199 3.75586C81.9199 3.17383 82.2441 2.88281 82.8926 2.88281C83.541 2.88281 83.8652 3.17383 83.8652 3.75586C83.8652 4.0332 83.7832 4.25 83.6191 4.40625C83.459 4.55859 83.2168 4.63477 82.8926 4.63477C82.2441 4.63477 81.9199 4.3418 81.9199 3.75586ZM83.7832 12H81.9961V5.44922H83.7832V12ZM91.7109 12H89.9238V8.17383C89.9238 7.70117 89.8398 7.34766 89.6719 7.11328C89.5039 6.875 89.2363 6.75586 88.8691 6.75586C88.3691 6.75586 88.0078 6.92383 87.7852 7.25977C87.5625 7.5918 87.4512 8.14453 87.4512 8.91797V12H85.6641V5.44922H87.0293L87.2695 6.28711H87.3691C87.5684 5.9707 87.8418 5.73242 88.1895 5.57227C88.541 5.4082 88.9395 5.32617 89.3848 5.32617C90.1465 5.32617 90.7246 5.5332 91.1191 5.94727C91.5137 6.35742 91.7109 6.95117 91.7109 7.72852V12ZM95.625 12.1172C94.8555 12.1172 94.25 11.8184 93.8086 11.2207C93.3711 10.623 93.1523 9.79492 93.1523 8.73633C93.1523 7.66211 93.375 6.82617 93.8203 6.22852C94.2695 5.62695 94.8867 5.32617 95.6719 5.32617C96.4961 5.32617 97.125 5.64648 97.5586 6.28711H97.6172C97.5273 5.79883 97.4824 5.36328 97.4824 4.98047V2.88281H99.2754V12H97.9043L97.5586 11.1504H97.4824C97.0762 11.7949 96.457 12.1172 95.625 12.1172ZM96.252 10.6934C96.709 10.6934 97.043 10.5605 97.2539 10.2949C97.4688 10.0293 97.5859 9.57812 97.6055 8.94141V8.74805C97.6055 8.04492 97.4961 7.54102 97.2773 7.23633C97.0625 6.93164 96.7109 6.7793 96.2227 6.7793C95.8242 6.7793 95.5137 6.94922 95.291 7.28906C95.0723 7.625 94.9629 8.11523 94.9629 8.75977C94.9629 9.4043 95.0742 9.88867 95.2969 10.2129C95.5195 10.5332 95.8379 10.6934 96.252 10.6934ZM104.789 5.32617C105.562 5.32617 106.168 5.62891 106.605 6.23438C107.043 6.83594 107.262 7.66211 107.262 8.71289C107.262 9.79492 107.035 10.6328 106.582 11.2266C106.133 11.8203 105.52 12.1172 104.742 12.1172C103.973 12.1172 103.369 11.8379 102.932 11.2793H102.809L102.51 12H101.145V2.88281H102.932V5.00391C102.932 5.27344 102.908 5.70508 102.861 6.29883H102.932C103.35 5.65039 103.969 5.32617 104.789 5.32617ZM104.215 6.75586C103.773 6.75586 103.451 6.89258 103.248 7.16602C103.045 7.43555 102.939 7.88281 102.932 8.50781V8.70117C102.932 9.4043 103.035 9.9082 103.242 10.2129C103.453 10.5176 103.785 10.6699 104.238 10.6699C104.605 10.6699 104.896 10.502 105.111 10.166C105.33 9.82617 105.439 9.33398 105.439 8.68945C105.439 8.04492 105.33 7.5625 105.111 7.24219C104.893 6.91797 104.594 6.75586 104.215 6.75586ZM110.525 12H108.738V2.88281H110.525V12ZM112.33 3.75586C112.33 3.17383 112.654 2.88281 113.303 2.88281C113.951 2.88281 114.275 3.17383 114.275 3.75586C114.275 4.0332 114.193 4.25 114.029 4.40625C113.869 4.55859 113.627 4.63477 113.303 4.63477C112.654 4.63477 112.33 4.3418 112.33 3.75586ZM114.193 12H112.406V5.44922H114.193V12ZM120.645 10.0547C120.645 10.7266 120.41 11.2383 119.941 11.5898C119.477 11.9414 118.779 12.1172 117.85 12.1172C117.373 12.1172 116.967 12.084 116.631 12.0176C116.295 11.9551 115.98 11.8613 115.688 11.7363V10.2598C116.02 10.416 116.393 10.5469 116.807 10.6523C117.225 10.7578 117.592 10.8105 117.908 10.8105C118.557 10.8105 118.881 10.623 118.881 10.248C118.881 10.1074 118.838 9.99414 118.752 9.9082C118.666 9.81836 118.518 9.71875 118.307 9.60938C118.096 9.49609 117.814 9.36523 117.463 9.2168C116.959 9.00586 116.588 8.81055 116.35 8.63086C116.115 8.45117 115.943 8.24609 115.834 8.01562C115.729 7.78125 115.676 7.49414 115.676 7.1543C115.676 6.57227 115.9 6.12305 116.35 5.80664C116.803 5.48633 117.443 5.32617 118.271 5.32617C119.061 5.32617 119.828 5.49805 120.574 5.8418L120.035 7.13086C119.707 6.99023 119.4 6.875 119.115 6.78516C118.83 6.69531 118.539 6.65039 118.242 6.65039C117.715 6.65039 117.451 6.79297 117.451 7.07812C117.451 7.23828 117.535 7.37695 117.703 7.49414C117.875 7.61133 118.248 7.78516 118.822 8.01562C119.334 8.22266 119.709 8.41602 119.947 8.5957C120.186 8.77539 120.361 8.98242 120.475 9.2168C120.588 9.45117 120.645 9.73047 120.645 10.0547ZM124.799 10.6934C125.111 10.6934 125.486 10.625 125.924 10.4883V11.8184C125.479 12.0176 124.932 12.1172 124.283 12.1172C123.568 12.1172 123.047 11.9375 122.719 11.5781C122.395 11.2148 122.232 10.6719 122.232 9.94922V6.79102H121.377V6.03516L122.361 5.4375L122.877 4.05469H124.02V5.44922H125.854V6.79102H124.02V9.94922C124.02 10.2031 124.09 10.3906 124.23 10.5117C124.375 10.6328 124.564 10.6934 124.799 10.6934ZM129.967 6.59766C129.588 6.59766 129.291 6.71875 129.076 6.96094C128.861 7.19922 128.738 7.53906 128.707 7.98047H131.215C131.207 7.53906 131.092 7.19922 130.869 6.96094C130.646 6.71875 130.346 6.59766 129.967 6.59766ZM130.219 12.1172C129.164 12.1172 128.34 11.8262 127.746 11.2441C127.152 10.6621 126.855 9.83789 126.855 8.77148C126.855 7.67383 127.129 6.82617 127.676 6.22852C128.227 5.62695 128.986 5.32617 129.955 5.32617C130.881 5.32617 131.602 5.58984 132.117 6.11719C132.633 6.64453 132.891 7.37305 132.891 8.30273V9.16992H128.666C128.686 9.67773 128.836 10.0742 129.117 10.3594C129.398 10.6445 129.793 10.7871 130.301 10.7871C130.695 10.7871 131.068 10.7461 131.42 10.6641C131.771 10.582 132.139 10.4512 132.521 10.2715V11.6543C132.209 11.8105 131.875 11.9258 131.52 12C131.164 12.0781 130.73 12.1172 130.219 12.1172ZM138 5.32617C138.242 5.32617 138.443 5.34375 138.604 5.37891L138.469 7.05469C138.324 7.01562 138.148 6.99609 137.941 6.99609C137.371 6.99609 136.926 7.14258 136.605 7.43555C136.289 7.72852 136.131 8.13867 136.131 8.66602V12H134.344V5.44922H135.697L135.961 6.55078H136.049C136.252 6.18359 136.525 5.88867 136.869 5.66602C137.217 5.43945 137.594 5.32617 138 5.32617ZM139.541 11.1621C139.541 10.834 139.629 10.5859 139.805 10.418C139.98 10.25 140.236 10.166 140.572 10.166C140.896 10.166 141.146 10.252 141.322 10.4238C141.502 10.5957 141.592 10.8418 141.592 11.1621C141.592 11.4707 141.502 11.7148 141.322 11.8945C141.143 12.0703 140.893 12.1582 140.572 12.1582C140.244 12.1582 139.99 12.0723 139.811 11.9004C139.631 11.7246 139.541 11.4785 139.541 11.1621ZM145.875 12.1172C143.836 12.1172 142.816 10.998 142.816 8.75977C142.816 7.64648 143.094 6.79688 143.648 6.21094C144.203 5.62109 144.998 5.32617 146.033 5.32617C146.791 5.32617 147.471 5.47461 148.072 5.77148L147.545 7.1543C147.264 7.04102 147.002 6.94922 146.76 6.87891C146.518 6.80469 146.275 6.76758 146.033 6.76758C145.104 6.76758 144.639 7.42773 144.639 8.74805C144.639 10.0293 145.104 10.6699 146.033 10.6699C146.377 10.6699 146.695 10.625 146.988 10.5352C147.281 10.4414 147.574 10.2969 147.867 10.1016V11.6309C147.578 11.8145 147.285 11.9414 146.988 12.0117C146.695 12.082 146.324 12.1172 145.875 12.1172ZM150.814 8.71289C150.814 9.36133 150.92 9.85156 151.131 10.1836C151.346 10.5156 151.693 10.6816 152.174 10.6816C152.65 10.6816 152.992 10.5176 153.199 10.1895C153.41 9.85742 153.516 9.36523 153.516 8.71289C153.516 8.06445 153.41 7.57812 153.199 7.25391C152.988 6.92969 152.643 6.76758 152.162 6.76758C151.686 6.76758 151.342 6.92969 151.131 7.25391C150.92 7.57422 150.814 8.06055 150.814 8.71289ZM155.344 8.71289C155.344 9.7793 155.062 10.6133 154.5 11.2148C153.938 11.8164 153.154 12.1172 152.15 12.1172C151.521 12.1172 150.967 11.9805 150.486 11.707C150.006 11.4297 149.637 11.0332 149.379 10.5176C149.121 10.002 148.992 9.40039 148.992 8.71289C148.992 7.64258 149.271 6.81055 149.83 6.2168C150.389 5.62305 151.174 5.32617 152.186 5.32617C152.814 5.32617 153.369 5.46289 153.85 5.73633C154.33 6.00977 154.699 6.40234 154.957 6.91406C155.215 7.42578 155.344 8.02539 155.344 8.71289ZM162.686 12H160.898V8.17383C160.898 7.70117 160.818 7.34766 160.658 7.11328C160.502 6.875 160.254 6.75586 159.914 6.75586C159.457 6.75586 159.125 6.92383 158.918 7.25977C158.711 7.5957 158.607 8.14844 158.607 8.91797V12H156.82V5.44922H158.186L158.426 6.28711H158.525C158.701 5.98633 158.955 5.75195 159.287 5.58398C159.619 5.41211 160 5.32617 160.43 5.32617C161.41 5.32617 162.074 5.64648 162.422 6.28711H162.58C162.756 5.98242 163.014 5.74609 163.354 5.57812C163.697 5.41016 164.084 5.32617 164.514 5.32617C165.256 5.32617 165.816 5.51758 166.195 5.90039C166.578 6.2793 166.77 6.88867 166.77 7.72852V12H164.977V8.17383C164.977 7.70117 164.896 7.34766 164.736 7.11328C164.58 6.875 164.332 6.75586 163.992 6.75586C163.555 6.75586 163.227 6.91211 163.008 7.22461C162.793 7.53711 162.686 8.0332 162.686 8.71289V12Z" fill="#333333" fill-opacity="0.5"/>
</g>
<defs>
<clipPath id="clip0">
<rect width="1440" height="6677" fill="white" transform="translate(-504 -5965)"/>
</clipPath>
</defs>
</svg>
