<svg width="17" height="16" viewBox="0 0 17 16" fill="none" xmlns="http://www.w3.org/2000/svg">
<g clip-path="url(#clip0)">
<rect width="1440" height="6677" transform="translate(-277 -5964)" fill="white"/>
<path d="M-192.297 14.4766C-192.771 13.7839 -193.382 12.9089 -194.129 11.8516C-195.04 10.5391 -195.642 9.65495 -195.934 9.19922C-196.353 8.54297 -196.635 7.99609 -196.781 7.55859C-196.927 7.10286 -197 6.58333 -197 6C-197 5.05208 -196.763 4.17708 -196.289 3.375C-195.815 2.57292 -195.177 1.9349 -194.375 1.46094C-193.573 0.986979 -192.698 0.75 -191.75 0.75C-190.802 0.75 -189.927 0.986979 -189.125 1.46094C-188.323 1.9349 -187.685 2.57292 -187.211 3.375C-186.737 4.17708 -186.5 5.05208 -186.5 6C-186.5 6.58333 -186.573 7.10286 -186.719 7.55859C-186.865 7.99609 -187.147 8.54297 -187.566 9.19922C-187.858 9.65495 -188.46 10.5391 -189.371 11.8516L-191.203 14.4766C-191.331 14.6589 -191.513 14.75 -191.75 14.75C-191.987 14.75 -192.169 14.6589 -192.297 14.4766ZM-191.75 8.1875C-191.148 8.1875 -190.638 7.97786 -190.219 7.55859C-189.781 7.12109 -189.562 6.60156 -189.562 6C-189.562 5.39844 -189.781 4.88802 -190.219 4.46875C-190.638 4.03125 -191.148 3.8125 -191.75 3.8125C-192.352 3.8125 -192.871 4.03125 -193.309 4.46875C-193.728 4.88802 -193.938 5.39844 -193.938 6C-193.938 6.60156 -193.728 7.12109 -193.309 7.55859C-192.871 7.97786 -192.352 8.1875 -191.75 8.1875ZM14.8672 1.43359L12.0234 0.777344C11.8776 0.740885 11.7318 0.759115 11.5859 0.832031C11.4401 0.904948 11.3398 1.00521 11.2852 1.13281L9.97266 4.19531C9.91797 4.34115 9.90885 4.48698 9.94531 4.63281C9.98177 4.76042 10.0547 4.86979 10.1641 4.96094L11.8047 6.32812C11.3125 7.38542 10.6471 8.33333 9.80859 9.17188C8.98828 10.0104 8.04036 10.6758 6.96484 11.168L5.625 9.52734C5.53385 9.39974 5.41536 9.32682 5.26953 9.30859C5.1237 9.27214 4.98698 9.28125 4.85938 9.33594L1.79688 10.6484C1.65104 10.7031 1.54167 10.8034 1.46875 10.9492C1.39583 11.0951 1.3776 11.2409 1.41406 11.3867L2.07031 14.2305C2.08854 14.3945 2.16146 14.5221 2.28906 14.6133C2.41667 14.7044 2.55339 14.75 2.69922 14.75C4.99609 14.75 7.12891 14.1758 9.09766 13.0273C11.0117 11.8971 12.5339 10.375 13.6641 8.46094C14.8125 6.49219 15.3867 4.35938 15.3867 2.0625C15.3867 1.91667 15.3411 1.77995 15.25 1.65234C15.1589 1.52474 15.0312 1.45182 14.8672 1.43359ZM242.242 5.97266C242.297 5.91797 242.352 5.90885 242.406 5.94531C242.479 5.98177 242.516 6.03646 242.516 6.10938V11.6875C242.516 12.0521 242.388 12.362 242.133 12.6172C241.878 12.8724 241.568 13 241.203 13H229.828C229.464 13 229.154 12.8724 228.898 12.6172C228.643 12.362 228.516 12.0521 228.516 11.6875V6.10938C228.516 6.03646 228.543 5.99089 228.598 5.97266C228.671 5.9362 228.734 5.9362 228.789 5.97266C229.391 6.42839 230.794 7.45833 233 9.0625L233.273 9.30859C233.711 9.63672 234.057 9.8737 234.312 10.0195C234.75 10.2565 235.151 10.375 235.516 10.375C235.88 10.375 236.281 10.2474 236.719 9.99219C236.992 9.84635 237.339 9.60938 237.758 9.28125L238.031 9.0625C240.182 7.51302 241.586 6.48307 242.242 5.97266ZM235.516 9.5C235.753 9.5 236.044 9.39062 236.391 9.17188C236.591 9.0625 236.874 8.86198 237.238 8.57031L237.512 8.37891C239.809 6.72005 241.349 5.58073 242.133 4.96094L242.27 4.85156C242.434 4.72396 242.516 4.55078 242.516 4.33203V3.8125C242.516 3.44792 242.388 3.13802 242.133 2.88281C241.878 2.6276 241.568 2.5 241.203 2.5H229.828C229.464 2.5 229.154 2.6276 228.898 2.88281C228.643 3.13802 228.516 3.44792 228.516 3.8125V4.33203C228.516 4.55078 228.598 4.72396 228.762 4.85156L228.953 4.98828C229.755 5.60807 231.277 6.73828 233.52 8.37891L233.793 8.57031C234.158 8.86198 234.44 9.0625 234.641 9.17188C234.987 9.39062 235.279 9.5 235.516 9.5Z" fill="#E8C300"/>
<path d="M-173.551 7.52734C-172.723 7.52734 -172.064 7.75977 -171.576 8.22461C-171.084 8.68945 -170.838 9.32617 -170.838 10.1348C-170.838 11.0918 -171.133 11.8281 -171.723 12.3438C-172.312 12.8594 -173.156 13.1172 -174.254 13.1172C-175.207 13.1172 -175.977 12.9629 -176.562 12.6543V11.0898C-176.254 11.2539 -175.895 11.3887 -175.484 11.4941C-175.074 11.5957 -174.686 11.6465 -174.318 11.6465C-173.213 11.6465 -172.66 11.1934 -172.66 10.2871C-172.66 9.42383 -173.232 8.99219 -174.377 8.99219C-174.584 8.99219 -174.812 9.01367 -175.062 9.05664C-175.312 9.0957 -175.516 9.13867 -175.672 9.18555L-176.393 8.79883L-176.07 4.43359H-171.424V5.96875H-174.482L-174.641 7.65039L-174.436 7.60938C-174.197 7.55469 -173.902 7.52734 -173.551 7.52734ZM-166.596 11.6934C-166.283 11.6934 -165.908 11.625 -165.471 11.4883V12.8184C-165.916 13.0176 -166.463 13.1172 -167.111 13.1172C-167.826 13.1172 -168.348 12.9375 -168.676 12.5781C-169 12.2148 -169.162 11.6719 -169.162 10.9492V7.79102H-170.018V7.03516L-169.033 6.4375L-168.518 5.05469H-167.375V6.44922H-165.541V7.79102H-167.375V10.9492C-167.375 11.2031 -167.305 11.3906 -167.164 11.5117C-167.02 11.6328 -166.83 11.6934 -166.596 11.6934ZM-158.094 13H-159.881V9.17383C-159.881 8.22852 -160.232 7.75586 -160.936 7.75586C-161.436 7.75586 -161.797 7.92578 -162.02 8.26562C-162.242 8.60547 -162.354 9.15625 -162.354 9.91797V13H-164.141V3.88281H-162.354V5.74023C-162.354 5.88477 -162.367 6.22461 -162.395 6.75977L-162.436 7.28711H-162.342C-161.943 6.64648 -161.311 6.32617 -160.443 6.32617C-159.674 6.32617 -159.09 6.5332 -158.691 6.94727C-158.293 7.36133 -158.094 7.95508 -158.094 8.72852V13ZM-152.996 13V4.43359H-151.18V11.5H-147.705V13H-152.996ZM-144.928 9.71289C-144.928 10.3613 -144.822 10.8516 -144.611 11.1836C-144.396 11.5156 -144.049 11.6816 -143.568 11.6816C-143.092 11.6816 -142.75 11.5176 -142.543 11.1895C-142.332 10.8574 -142.227 10.3652 -142.227 9.71289C-142.227 9.06445 -142.332 8.57812 -142.543 8.25391C-142.754 7.92969 -143.1 7.76758 -143.58 7.76758C-144.057 7.76758 -144.4 7.92969 -144.611 8.25391C-144.822 8.57422 -144.928 9.06055 -144.928 9.71289ZM-140.398 9.71289C-140.398 10.7793 -140.68 11.6133 -141.242 12.2148C-141.805 12.8164 -142.588 13.1172 -143.592 13.1172C-144.221 13.1172 -144.775 12.9805 -145.256 12.707C-145.736 12.4297 -146.105 12.0332 -146.363 11.5176C-146.621 11.002 -146.75 10.4004 -146.75 9.71289C-146.75 8.64258 -146.471 7.81055 -145.912 7.2168C-145.354 6.62305 -144.568 6.32617 -143.557 6.32617C-142.928 6.32617 -142.373 6.46289 -141.893 6.73633C-141.412 7.00977 -141.043 7.40234 -140.785 7.91406C-140.527 8.42578 -140.398 9.02539 -140.398 9.71289ZM-132.875 13H-134.662V9.17383C-134.662 8.70117 -134.746 8.34766 -134.914 8.11328C-135.082 7.875 -135.35 7.75586 -135.717 7.75586C-136.217 7.75586 -136.578 7.92383 -136.801 8.25977C-137.023 8.5918 -137.135 9.14453 -137.135 9.91797V13H-138.922V6.44922H-137.557L-137.316 7.28711H-137.217C-137.018 6.9707 -136.744 6.73242 -136.396 6.57227C-136.045 6.4082 -135.646 6.32617 -135.201 6.32617C-134.439 6.32617 -133.861 6.5332 -133.467 6.94727C-133.072 7.35742 -132.875 7.95117 -132.875 8.72852V13ZM-128.961 13.1172C-129.73 13.1172 -130.336 12.8184 -130.777 12.2207C-131.215 11.623 -131.434 10.7949 -131.434 9.73633C-131.434 8.66211 -131.211 7.82617 -130.766 7.22852C-130.316 6.62695 -129.699 6.32617 -128.914 6.32617C-128.09 6.32617 -127.461 6.64648 -127.027 7.28711H-126.969C-127.059 6.79883 -127.104 6.36328 -127.104 5.98047V3.88281H-125.311V13H-126.682L-127.027 12.1504H-127.104C-127.51 12.7949 -128.129 13.1172 -128.961 13.1172ZM-128.334 11.6934C-127.877 11.6934 -127.543 11.5605 -127.332 11.2949C-127.117 11.0293 -127 10.5781 -126.98 9.94141V9.74805C-126.98 9.04492 -127.09 8.54102 -127.309 8.23633C-127.523 7.93164 -127.875 7.7793 -128.363 7.7793C-128.762 7.7793 -129.072 7.94922 -129.295 8.28906C-129.514 8.625 -129.623 9.11523 -129.623 9.75977C-129.623 10.4043 -129.512 10.8887 -129.289 11.2129C-129.066 11.5332 -128.748 11.6934 -128.334 11.6934ZM-122.018 9.71289C-122.018 10.3613 -121.912 10.8516 -121.701 11.1836C-121.486 11.5156 -121.139 11.6816 -120.658 11.6816C-120.182 11.6816 -119.84 11.5176 -119.633 11.1895C-119.422 10.8574 -119.316 10.3652 -119.316 9.71289C-119.316 9.06445 -119.422 8.57812 -119.633 8.25391C-119.844 7.92969 -120.189 7.76758 -120.67 7.76758C-121.146 7.76758 -121.49 7.92969 -121.701 8.25391C-121.912 8.57422 -122.018 9.06055 -122.018 9.71289ZM-117.488 9.71289C-117.488 10.7793 -117.77 11.6133 -118.332 12.2148C-118.895 12.8164 -119.678 13.1172 -120.682 13.1172C-121.311 13.1172 -121.865 12.9805 -122.346 12.707C-122.826 12.4297 -123.195 12.0332 -123.453 11.5176C-123.711 11.002 -123.84 10.4004 -123.84 9.71289C-123.84 8.64258 -123.561 7.81055 -123.002 7.2168C-122.443 6.62305 -121.658 6.32617 -120.646 6.32617C-120.018 6.32617 -119.463 6.46289 -118.982 6.73633C-118.502 7.00977 -118.133 7.40234 -117.875 7.91406C-117.617 8.42578 -117.488 9.02539 -117.488 9.71289ZM-109.965 13H-111.752V9.17383C-111.752 8.70117 -111.836 8.34766 -112.004 8.11328C-112.172 7.875 -112.439 7.75586 -112.807 7.75586C-113.307 7.75586 -113.668 7.92383 -113.891 8.25977C-114.113 8.5918 -114.225 9.14453 -114.225 9.91797V13H-116.012V6.44922H-114.646L-114.406 7.28711H-114.307C-114.107 6.9707 -113.834 6.73242 -113.486 6.57227C-113.135 6.4082 -112.736 6.32617 -112.291 6.32617C-111.529 6.32617 -110.951 6.5332 -110.557 6.94727C-110.162 7.35742 -109.965 7.95117 -109.965 8.72852V13ZM-104.867 4.43359H-102.201C-100.986 4.43359 -100.105 4.60742 -99.5586 4.95508C-99.0078 5.29883 -98.7324 5.84766 -98.7324 6.60156C-98.7324 7.11328 -98.8535 7.5332 -99.0957 7.86133C-99.334 8.18945 -99.6523 8.38672 -100.051 8.45312V8.51172C-99.5078 8.63281 -99.1172 8.85938 -98.8789 9.19141C-98.6367 9.52344 -98.5156 9.96484 -98.5156 10.5156C-98.5156 11.2969 -98.7988 11.9062 -99.3652 12.3438C-99.9277 12.7812 -100.693 13 -101.662 13H-104.867V4.43359ZM-103.051 7.82617H-101.996C-101.504 7.82617 -101.148 7.75 -100.93 7.59766C-100.707 7.44531 -100.596 7.19336 -100.596 6.8418C-100.596 6.51367 -100.717 6.2793 -100.959 6.13867C-101.197 5.99414 -101.576 5.92188 -102.096 5.92188H-103.051V7.82617ZM-103.051 9.26758V11.5H-101.867C-101.367 11.5 -100.998 11.4043 -100.76 11.2129C-100.521 11.0215 -100.402 10.7285 -100.402 10.334C-100.402 9.62305 -100.91 9.26758 -101.926 9.26758H-103.051ZM-95.5215 9.71289C-95.5215 10.3613 -95.416 10.8516 -95.2051 11.1836C-94.9902 11.5156 -94.6426 11.6816 -94.1621 11.6816C-93.6855 11.6816 -93.3438 11.5176 -93.1367 11.1895C-92.9258 10.8574 -92.8203 10.3652 -92.8203 9.71289C-92.8203 9.06445 -92.9258 8.57812 -93.1367 8.25391C-93.3477 7.92969 -93.6934 7.76758 -94.1738 7.76758C-94.6504 7.76758 -94.9941 7.92969 -95.2051 8.25391C-95.416 8.57422 -95.5215 9.06055 -95.5215 9.71289ZM-90.9922 9.71289C-90.9922 10.7793 -91.2734 11.6133 -91.8359 12.2148C-92.3984 12.8164 -93.1816 13.1172 -94.1855 13.1172C-94.8145 13.1172 -95.3691 12.9805 -95.8496 12.707C-96.3301 12.4297 -96.6992 12.0332 -96.957 11.5176C-97.2148 11.002 -97.3438 10.4004 -97.3438 9.71289C-97.3438 8.64258 -97.0645 7.81055 -96.5059 7.2168C-95.9473 6.62305 -95.1621 6.32617 -94.1504 6.32617C-93.5215 6.32617 -92.9668 6.46289 -92.4863 6.73633C-92.0059 7.00977 -91.6367 7.40234 -91.3789 7.91406C-91.1211 8.42578 -90.9922 9.02539 -90.9922 9.71289ZM-84.875 13L-85.1152 12.1621H-85.209C-85.4004 12.4668 -85.6719 12.7031 -86.0234 12.8711C-86.375 13.0352 -86.7754 13.1172 -87.2246 13.1172C-87.9941 13.1172 -88.5742 12.9121 -88.9648 12.502C-89.3555 12.0879 -89.5508 11.4941 -89.5508 10.7207V6.44922H-87.7637V10.2754C-87.7637 10.748 -87.6797 11.1035 -87.5117 11.3418C-87.3438 11.5762 -87.0762 11.6934 -86.709 11.6934C-86.209 11.6934 -85.8477 11.5273 -85.625 11.1953C-85.4023 10.8594 -85.291 10.3047 -85.291 9.53125V6.44922H-83.5039V13H-84.875ZM-79.8418 13H-81.6289V3.88281H-79.8418V13ZM-75.248 7.59766C-75.627 7.59766 -75.9238 7.71875 -76.1387 7.96094C-76.3535 8.19922 -76.4766 8.53906 -76.5078 8.98047H-74C-74.0078 8.53906 -74.123 8.19922 -74.3457 7.96094C-74.5684 7.71875 -74.8691 7.59766 -75.248 7.59766ZM-74.9961 13.1172C-76.0508 13.1172 -76.875 12.8262 -77.4688 12.2441C-78.0625 11.6621 -78.3594 10.8379 -78.3594 9.77148C-78.3594 8.67383 -78.0859 7.82617 -77.5391 7.22852C-76.9883 6.62695 -76.2285 6.32617 -75.2598 6.32617C-74.334 6.32617 -73.6133 6.58984 -73.0977 7.11719C-72.582 7.64453 -72.3242 8.37305 -72.3242 9.30273V10.1699H-76.5488C-76.5293 10.6777 -76.3789 11.0742 -76.0977 11.3594C-75.8164 11.6445 -75.4219 11.7871 -74.9141 11.7871C-74.5195 11.7871 -74.1465 11.7461 -73.7949 11.6641C-73.4434 11.582 -73.0762 11.4512 -72.6934 11.2715V12.6543C-73.0059 12.8105 -73.3398 12.9258 -73.6953 13C-74.0508 13.0781 -74.4844 13.1172 -74.9961 13.1172ZM-69.3125 13L-71.8086 6.44922H-69.9395L-68.6738 10.1816C-68.5332 10.6543 -68.4453 11.1016 -68.4102 11.5234H-68.375C-68.3555 11.1484 -68.2676 10.7012 -68.1113 10.1816L-66.8516 6.44922H-64.9824L-67.4785 13H-69.3125ZM-59.8789 13L-60.2246 12.1094H-60.2715C-60.5723 12.4883 -60.8828 12.752 -61.2031 12.9004C-61.5195 13.0449 -61.9336 13.1172 -62.4453 13.1172C-63.0742 13.1172 -63.5703 12.9375 -63.9336 12.5781C-64.293 12.2188 -64.4727 11.707 -64.4727 11.043C-64.4727 10.3477 -64.2305 9.83594 -63.7461 9.50781C-63.2578 9.17578 -62.5234 8.99219 -61.543 8.95703L-60.4062 8.92188V8.63477C-60.4062 7.9707 -60.7461 7.63867 -61.4258 7.63867C-61.9492 7.63867 -62.5645 7.79688 -63.2715 8.11328L-63.8633 6.90625C-63.1094 6.51172 -62.2734 6.31445 -61.3555 6.31445C-60.4766 6.31445 -59.8027 6.50586 -59.334 6.88867C-58.8652 7.27148 -58.6309 7.85352 -58.6309 8.63477V13H-59.8789ZM-60.4062 9.96484L-61.0977 9.98828C-61.6172 10.0039 -62.0039 10.0977 -62.2578 10.2695C-62.5117 10.4414 -62.6387 10.7031 -62.6387 11.0547C-62.6387 11.5586 -62.3496 11.8105 -61.7715 11.8105C-61.3574 11.8105 -61.0273 11.6914 -60.7812 11.4531C-60.5312 11.2148 -60.4062 10.8984 -60.4062 10.5039V9.96484ZM-53.1289 6.32617C-52.8867 6.32617 -52.6855 6.34375 -52.5254 6.37891L-52.6602 8.05469C-52.8047 8.01562 -52.9805 7.99609 -53.1875 7.99609C-53.7578 7.99609 -54.2031 8.14258 -54.5234 8.43555C-54.8398 8.72852 -54.998 9.13867 -54.998 9.66602V13H-56.7852V6.44922H-55.4316L-55.168 7.55078H-55.0801C-54.877 7.18359 -54.6035 6.88867 -54.2598 6.66602C-53.9121 6.43945 -53.5352 6.32617 -53.1289 6.32617ZM-49.2617 13.1172C-50.0312 13.1172 -50.6367 12.8184 -51.0781 12.2207C-51.5156 11.623 -51.7344 10.7949 -51.7344 9.73633C-51.7344 8.66211 -51.5117 7.82617 -51.0664 7.22852C-50.6172 6.62695 -50 6.32617 -49.2148 6.32617C-48.3906 6.32617 -47.7617 6.64648 -47.3281 7.28711H-47.2695C-47.3594 6.79883 -47.4043 6.36328 -47.4043 5.98047V3.88281H-45.6113V13H-46.9824L-47.3281 12.1504H-47.4043C-47.8105 12.7949 -48.4297 13.1172 -49.2617 13.1172ZM-48.6348 11.6934C-48.1777 11.6934 -47.8438 11.5605 -47.6328 11.2949C-47.418 11.0293 -47.3008 10.5781 -47.2812 9.94141V9.74805C-47.2812 9.04492 -47.3906 8.54102 -47.6094 8.23633C-47.8242 7.93164 -48.1758 7.7793 -48.6641 7.7793C-49.0625 7.7793 -49.373 7.94922 -49.5957 8.28906C-49.8145 8.625 -49.9238 9.11523 -49.9238 9.75977C-49.9238 10.4043 -49.8125 10.8887 -49.5898 11.2129C-49.3672 11.5332 -49.0488 11.6934 -48.6348 11.6934ZM-41.9902 11.7402C-42.1934 12.5293 -42.5371 13.4648 -43.0215 14.5469H-44.3105C-44.0566 13.5078 -43.8594 12.5273 -43.7188 11.6055H-42.0781L-41.9902 11.7402ZM-30.0312 4.43359V9.97656C-30.0312 10.6094 -30.1738 11.1641 -30.459 11.6406C-30.7402 12.1172 -31.1484 12.4824 -31.6836 12.7363C-32.2188 12.9902 -32.8516 13.1172 -33.582 13.1172C-34.6836 13.1172 -35.5391 12.8359 -36.1484 12.2734C-36.7578 11.707 -37.0625 10.9336 -37.0625 9.95312V4.43359H-35.252V9.67773C-35.252 10.3379 -35.1191 10.8223 -34.8535 11.1309C-34.5879 11.4395 -34.1484 11.5938 -33.5352 11.5938C-32.9414 11.5938 -32.5117 11.4395 -32.2461 11.1309C-31.9766 10.8184 -31.8418 10.3301 -31.8418 9.66602V4.43359H-30.0312ZM-28.3262 12.1621C-28.3262 11.834 -28.2383 11.5859 -28.0625 11.418C-27.8867 11.25 -27.6309 11.166 -27.2949 11.166C-26.9707 11.166 -26.7207 11.252 -26.5449 11.4238C-26.3652 11.5957 -26.2754 11.8418 -26.2754 12.1621C-26.2754 12.4707 -26.3652 12.7148 -26.5449 12.8945C-26.7246 13.0703 -26.9746 13.1582 -27.2949 13.1582C-27.623 13.1582 -27.877 13.0723 -28.0566 12.9004C-28.2363 12.7246 -28.3262 12.4785 -28.3262 12.1621ZM-17.6211 13H-19.6836L-21.9277 9.39062L-22.6953 9.94141V13H-24.5117V4.43359H-22.6953V8.35352L-21.9805 7.3457L-19.6602 4.43359H-17.6445L-20.6328 8.22461L-17.6211 13ZM-16.9355 12.1621C-16.9355 11.834 -16.8477 11.5859 -16.6719 11.418C-16.4961 11.25 -16.2402 11.166 -15.9043 11.166C-15.5801 11.166 -15.3301 11.252 -15.1543 11.4238C-14.9746 11.5957 -14.8848 11.8418 -14.8848 12.1621C-14.8848 12.4707 -14.9746 12.7148 -15.1543 12.8945C-15.334 13.0703 -15.584 13.1582 -15.9043 13.1582C-16.2324 13.1582 -16.4863 13.0723 -16.666 12.9004C-16.8457 12.7246 -16.9355 12.4785 -16.9355 12.1621ZM27.5215 9.41406H25.2539V8.13086H27.5215V5.8457H28.8047V8.13086H31.0723V9.41406H28.8047V11.6699H27.5215V9.41406ZM38.2559 11.2246H37.2246V13H35.4551V11.2246H31.7988V9.96484L35.5547 4.43359H37.2246V9.81836H38.2559V11.2246ZM35.4551 9.81836V8.36523C35.4551 8.12305 35.4648 7.77148 35.4844 7.31055C35.5039 6.84961 35.5195 6.58203 35.5312 6.50781H35.4844C35.3398 6.82812 35.166 7.14062 34.9629 7.44531L33.3926 9.81836H35.4551ZM44.8711 8.7168C44.8711 10.2129 44.625 11.3203 44.1328 12.0391C43.6445 12.7578 42.8906 13.1172 41.8711 13.1172C40.8828 13.1172 40.1367 12.7461 39.6328 12.0039C39.1328 11.2617 38.8828 10.166 38.8828 8.7168C38.8828 7.20508 39.127 6.0918 39.6152 5.37695C40.1035 4.6582 40.8555 4.29883 41.8711 4.29883C42.8594 4.29883 43.6055 4.67383 44.1094 5.42383C44.6172 6.17383 44.8711 7.27148 44.8711 8.7168ZM40.6816 8.7168C40.6816 9.76758 40.7715 10.5215 40.9512 10.9785C41.1348 11.4316 41.4414 11.6582 41.8711 11.6582C42.293 11.6582 42.5977 11.4277 42.7852 10.9668C42.9727 10.5059 43.0664 9.75586 43.0664 8.7168C43.0664 7.66602 42.9707 6.91211 42.7793 6.45508C42.5918 5.99414 42.2891 5.76367 41.8711 5.76367C41.4453 5.76367 41.1406 5.99414 40.957 6.45508C40.7734 6.91211 40.6816 7.66602 40.6816 8.7168ZM49.752 13L52.9688 5.96875H48.7441V4.44531H54.8906V5.58203L51.6504 13H49.752ZM61.7461 13H55.7578V11.7402L57.9082 9.56641C58.5449 8.91406 58.9609 8.46289 59.1562 8.21289C59.3516 7.95898 59.4922 7.72461 59.5781 7.50977C59.6641 7.29492 59.707 7.07227 59.707 6.8418C59.707 6.49805 59.6113 6.24219 59.4199 6.07422C59.2324 5.90625 58.9805 5.82227 58.6641 5.82227C58.332 5.82227 58.0098 5.89844 57.6973 6.05078C57.3848 6.20312 57.0586 6.41992 56.7188 6.70117L55.7344 5.53516C56.1562 5.17578 56.5059 4.92188 56.7832 4.77344C57.0605 4.625 57.3633 4.51172 57.6914 4.43359C58.0195 4.35156 58.3867 4.31055 58.793 4.31055C59.3281 4.31055 59.8008 4.4082 60.2109 4.60352C60.6211 4.79883 60.9395 5.07227 61.166 5.42383C61.3926 5.77539 61.5059 6.17773 61.5059 6.63086C61.5059 7.02539 61.4355 7.39648 61.2949 7.74414C61.1582 8.08789 60.9434 8.44141 60.6504 8.80469C60.3613 9.16797 59.8496 9.68555 59.1152 10.3574L58.0137 11.3945V11.4766H61.7461V13ZM68.5664 8.08984C68.5664 9.77734 68.2109 11.0371 67.5 11.8691C66.7891 12.7012 65.7129 13.1172 64.2715 13.1172C63.7637 13.1172 63.3789 13.0898 63.1172 13.0352V11.582C63.4453 11.6641 63.7891 11.7051 64.1484 11.7051C64.7539 11.7051 65.252 11.6172 65.6426 11.4414C66.0332 11.2617 66.332 10.9824 66.5391 10.6035C66.7461 10.2207 66.8652 9.69531 66.8965 9.02734H66.8262C66.5996 9.39453 66.3379 9.65234 66.041 9.80078C65.7441 9.94922 65.373 10.0234 64.9277 10.0234C64.1816 10.0234 63.5938 9.78516 63.1641 9.30859C62.7344 8.82812 62.5195 8.16211 62.5195 7.31055C62.5195 6.39258 62.7793 5.66797 63.2988 5.13672C63.8223 4.60156 64.5332 4.33398 65.4316 4.33398C66.0645 4.33398 66.6172 4.48242 67.0898 4.7793C67.5664 5.07617 67.9316 5.50781 68.1855 6.07422C68.4395 6.63672 68.5664 7.30859 68.5664 8.08984ZM65.4668 5.78711C65.0918 5.78711 64.7988 5.91602 64.5879 6.17383C64.377 6.43164 64.2715 6.80273 64.2715 7.28711C64.2715 7.70117 64.3672 8.0293 64.5586 8.27148C64.75 8.51367 65.041 8.63477 65.4316 8.63477C65.7988 8.63477 66.1133 8.51562 66.375 8.27734C66.6367 8.03516 66.7676 7.75781 66.7676 7.44531C66.7676 6.98047 66.6445 6.58789 66.3984 6.26758C66.1562 5.94727 65.8457 5.78711 65.4668 5.78711ZM77.0625 13H75.252V8.04297L75.2695 7.22852L75.2988 6.33789C74.998 6.63867 74.7891 6.83594 74.6719 6.92969L73.6875 7.7207L72.8145 6.63086L75.5742 4.43359H77.0625V13ZM85.0957 6.34961C85.0957 6.88477 84.9336 7.33984 84.6094 7.71484C84.2852 8.08984 83.8301 8.34766 83.2441 8.48828V8.52344C83.9355 8.60938 84.459 8.82031 84.8145 9.15625C85.1699 9.48828 85.3477 9.9375 85.3477 10.5039C85.3477 11.3281 85.0488 11.9707 84.4512 12.4316C83.8535 12.8887 83 13.1172 81.8906 13.1172C80.9609 13.1172 80.1367 12.9629 79.418 12.6543V11.1133C79.75 11.2812 80.1152 11.418 80.5137 11.5234C80.9121 11.6289 81.3066 11.6816 81.6973 11.6816C82.2949 11.6816 82.7363 11.5801 83.0215 11.377C83.3066 11.1738 83.4492 10.8477 83.4492 10.3984C83.4492 9.99609 83.2852 9.71094 82.957 9.54297C82.6289 9.375 82.1055 9.29102 81.3867 9.29102H80.7363V7.90234H81.3984C82.0625 7.90234 82.5469 7.81641 82.8516 7.64453C83.1602 7.46875 83.3145 7.16992 83.3145 6.74805C83.3145 6.09961 82.9082 5.77539 82.0957 5.77539C81.8145 5.77539 81.5273 5.82227 81.2344 5.91602C80.9453 6.00977 80.623 6.17188 80.2676 6.40234L79.4297 5.1543C80.2109 4.5918 81.1426 4.31055 82.2246 4.31055C83.1113 4.31055 83.8105 4.49023 84.3223 4.84961C84.8379 5.20898 85.0957 5.70898 85.0957 6.34961ZM90.7734 13H88.9629V8.04297L88.9805 7.22852L89.0098 6.33789C88.709 6.63867 88.5 6.83594 88.3828 6.92969L87.3984 7.7207L86.5254 6.63086L89.2852 4.43359H90.7734V13ZM96.2109 9.36133C96.2109 7.66602 96.5684 6.4043 97.2832 5.57617C98.002 4.74805 99.0762 4.33398 100.506 4.33398C100.994 4.33398 101.377 4.36328 101.654 4.42188V5.86914C101.307 5.79102 100.963 5.75195 100.623 5.75195C100.002 5.75195 99.4941 5.8457 99.0996 6.0332C98.709 6.2207 98.416 6.49805 98.2207 6.86523C98.0254 7.23242 97.9102 7.75391 97.875 8.42969H97.9512C98.3379 7.76562 98.957 7.43359 99.8086 7.43359C100.574 7.43359 101.174 7.67383 101.607 8.1543C102.041 8.63477 102.258 9.29883 102.258 10.1465C102.258 11.0605 102 11.7852 101.484 12.3203C100.969 12.8516 100.254 13.1172 99.3398 13.1172C98.707 13.1172 98.1543 12.9707 97.6816 12.6777C97.2129 12.3848 96.8496 11.957 96.5918 11.3945C96.3379 10.832 96.2109 10.1543 96.2109 9.36133ZM99.3047 11.6699C99.6914 11.6699 99.9883 11.541 100.195 11.2832C100.402 11.0215 100.506 10.6504 100.506 10.1699C100.506 9.75195 100.408 9.42383 100.213 9.18555C100.021 8.94336 99.7305 8.82227 99.3398 8.82227C98.9727 8.82227 98.6582 8.94141 98.3965 9.17969C98.1387 9.41797 98.0098 9.69531 98.0098 10.0117C98.0098 10.4766 98.1309 10.8691 98.373 11.1895C98.6191 11.5098 98.9297 11.6699 99.3047 11.6699ZM108.779 6.34961C108.779 6.88477 108.617 7.33984 108.293 7.71484C107.969 8.08984 107.514 8.34766 106.928 8.48828V8.52344C107.619 8.60938 108.143 8.82031 108.498 9.15625C108.854 9.48828 109.031 9.9375 109.031 10.5039C109.031 11.3281 108.732 11.9707 108.135 12.4316C107.537 12.8887 106.684 13.1172 105.574 13.1172C104.645 13.1172 103.82 12.9629 103.102 12.6543V11.1133C103.434 11.2812 103.799 11.418 104.197 11.5234C104.596 11.6289 104.99 11.6816 105.381 11.6816C105.979 11.6816 106.42 11.5801 106.705 11.377C106.99 11.1738 107.133 10.8477 107.133 10.3984C107.133 9.99609 106.969 9.71094 106.641 9.54297C106.312 9.375 105.789 9.29102 105.07 9.29102H104.42V7.90234H105.082C105.746 7.90234 106.23 7.81641 106.535 7.64453C106.844 7.46875 106.998 7.16992 106.998 6.74805C106.998 6.09961 106.592 5.77539 105.779 5.77539C105.498 5.77539 105.211 5.82227 104.918 5.91602C104.629 6.00977 104.307 6.17188 103.951 6.40234L103.113 5.1543C103.895 4.5918 104.826 4.31055 105.908 4.31055C106.795 4.31055 107.494 4.49023 108.006 4.84961C108.521 5.20898 108.779 5.70898 108.779 6.34961ZM110.83 13L114.047 5.96875H109.822V4.44531H115.969V5.58203L112.729 13H110.83ZM121.254 4.43359L118.061 13H116.438L119.631 4.43359H121.254ZM124.096 9.41406H121.828V8.13086H124.096V5.8457H125.379V8.13086H127.646V9.41406H125.379V11.6699H124.096V9.41406ZM134.83 11.2246H133.799V13H132.029V11.2246H128.373V9.96484L132.129 4.43359H133.799V9.81836H134.83V11.2246ZM132.029 9.81836V8.36523C132.029 8.12305 132.039 7.77148 132.059 7.31055C132.078 6.84961 132.094 6.58203 132.105 6.50781H132.059C131.914 6.82812 131.74 7.14062 131.537 7.44531L129.967 9.81836H132.029ZM141.445 8.7168C141.445 10.2129 141.199 11.3203 140.707 12.0391C140.219 12.7578 139.465 13.1172 138.445 13.1172C137.457 13.1172 136.711 12.7461 136.207 12.0039C135.707 11.2617 135.457 10.166 135.457 8.7168C135.457 7.20508 135.701 6.0918 136.189 5.37695C136.678 4.6582 137.43 4.29883 138.445 4.29883C139.434 4.29883 140.18 4.67383 140.684 5.42383C141.191 6.17383 141.445 7.27148 141.445 8.7168ZM137.256 8.7168C137.256 9.76758 137.346 10.5215 137.525 10.9785C137.709 11.4316 138.016 11.6582 138.445 11.6582C138.867 11.6582 139.172 11.4277 139.359 10.9668C139.547 10.5059 139.641 9.75586 139.641 8.7168C139.641 7.66602 139.545 6.91211 139.354 6.45508C139.166 5.99414 138.863 5.76367 138.445 5.76367C138.02 5.76367 137.715 5.99414 137.531 6.45508C137.348 6.91211 137.256 7.66602 137.256 8.7168ZM146.326 13L149.543 5.96875H145.318V4.44531H151.465V5.58203L148.225 13H146.326ZM158.32 13H152.332V11.7402L154.482 9.56641C155.119 8.91406 155.535 8.46289 155.73 8.21289C155.926 7.95898 156.066 7.72461 156.152 7.50977C156.238 7.29492 156.281 7.07227 156.281 6.8418C156.281 6.49805 156.186 6.24219 155.994 6.07422C155.807 5.90625 155.555 5.82227 155.238 5.82227C154.906 5.82227 154.584 5.89844 154.271 6.05078C153.959 6.20312 153.633 6.41992 153.293 6.70117L152.309 5.53516C152.73 5.17578 153.08 4.92188 153.357 4.77344C153.635 4.625 153.938 4.51172 154.266 4.43359C154.594 4.35156 154.961 4.31055 155.367 4.31055C155.902 4.31055 156.375 4.4082 156.785 4.60352C157.195 4.79883 157.514 5.07227 157.74 5.42383C157.967 5.77539 158.08 6.17773 158.08 6.63086C158.08 7.02539 158.01 7.39648 157.869 7.74414C157.732 8.08789 157.518 8.44141 157.225 8.80469C156.936 9.16797 156.424 9.68555 155.689 10.3574L154.588 11.3945V11.4766H158.32V13ZM159.129 9.36133C159.129 7.66602 159.486 6.4043 160.201 5.57617C160.92 4.74805 161.994 4.33398 163.424 4.33398C163.912 4.33398 164.295 4.36328 164.572 4.42188V5.86914C164.225 5.79102 163.881 5.75195 163.541 5.75195C162.92 5.75195 162.412 5.8457 162.018 6.0332C161.627 6.2207 161.334 6.49805 161.139 6.86523C160.943 7.23242 160.828 7.75391 160.793 8.42969H160.869C161.256 7.76562 161.875 7.43359 162.727 7.43359C163.492 7.43359 164.092 7.67383 164.525 8.1543C164.959 8.63477 165.176 9.29883 165.176 10.1465C165.176 11.0605 164.918 11.7852 164.402 12.3203C163.887 12.8516 163.172 13.1172 162.258 13.1172C161.625 13.1172 161.072 12.9707 160.6 12.6777C160.131 12.3848 159.768 11.957 159.51 11.3945C159.256 10.832 159.129 10.1543 159.129 9.36133ZM162.223 11.6699C162.609 11.6699 162.906 11.541 163.113 11.2832C163.32 11.0215 163.424 10.6504 163.424 10.1699C163.424 9.75195 163.326 9.42383 163.131 9.18555C162.939 8.94336 162.648 8.82227 162.258 8.82227C161.891 8.82227 161.576 8.94141 161.314 9.17969C161.057 9.41797 160.928 9.69531 160.928 10.0117C160.928 10.4766 161.049 10.8691 161.291 11.1895C161.537 11.5098 161.848 11.6699 162.223 11.6699ZM175.342 11.2246H174.311V13H172.541V11.2246H168.885V9.96484L172.641 4.43359H174.311V9.81836H175.342V11.2246ZM172.541 9.81836V8.36523C172.541 8.12305 172.551 7.77148 172.57 7.31055C172.59 6.84961 172.605 6.58203 172.617 6.50781H172.57C172.426 6.82812 172.252 7.14062 172.049 7.44531L170.479 9.81836H172.541ZM179.133 7.52734C179.961 7.52734 180.619 7.75977 181.107 8.22461C181.6 8.68945 181.846 9.32617 181.846 10.1348C181.846 11.0918 181.551 11.8281 180.961 12.3438C180.371 12.8594 179.527 13.1172 178.43 13.1172C177.477 13.1172 176.707 12.9629 176.121 12.6543V11.0898C176.43 11.2539 176.789 11.3887 177.199 11.4941C177.609 11.5957 177.998 11.6465 178.365 11.6465C179.471 11.6465 180.023 11.1934 180.023 10.2871C180.023 9.42383 179.451 8.99219 178.307 8.99219C178.1 8.99219 177.871 9.01367 177.621 9.05664C177.371 9.0957 177.168 9.13867 177.012 9.18555L176.291 8.79883L176.613 4.43359H181.26V5.96875H178.201L178.043 7.65039L178.248 7.60938C178.486 7.55469 178.781 7.52734 179.133 7.52734ZM185.824 4.32227C186.645 4.32227 187.305 4.50977 187.805 4.88477C188.309 5.25586 188.561 5.75781 188.561 6.39062C188.561 6.82812 188.439 7.21875 188.197 7.5625C187.955 7.90234 187.564 8.20703 187.025 8.47656C187.666 8.82031 188.125 9.17969 188.402 9.55469C188.684 9.92578 188.824 10.334 188.824 10.7793C188.824 11.4824 188.549 12.0488 187.998 12.4785C187.447 12.9043 186.723 13.1172 185.824 13.1172C184.887 13.1172 184.15 12.918 183.615 12.5195C183.08 12.1211 182.812 11.5566 182.812 10.8262C182.812 10.3379 182.941 9.9043 183.199 9.52539C183.461 9.14648 183.879 8.8125 184.453 8.52344C183.965 8.21484 183.613 7.88477 183.398 7.5332C183.184 7.18164 183.076 6.79688 183.076 6.37891C183.076 5.76562 183.33 5.26953 183.838 4.89062C184.346 4.51172 185.008 4.32227 185.824 4.32227ZM184.488 10.7207C184.488 11.0566 184.605 11.3184 184.84 11.5059C185.074 11.6934 185.395 11.7871 185.801 11.7871C186.25 11.7871 186.586 11.6914 186.809 11.5C187.031 11.3047 187.143 11.0488 187.143 10.7324C187.143 10.4707 187.031 10.2266 186.809 10C186.59 9.76953 186.232 9.52539 185.736 9.26758C184.904 9.65039 184.488 10.1348 184.488 10.7207ZM185.812 5.64648C185.504 5.64648 185.254 5.72656 185.062 5.88672C184.875 6.04297 184.781 6.25391 184.781 6.51953C184.781 6.75391 184.855 6.96484 185.004 7.15234C185.156 7.33594 185.43 7.52539 185.824 7.7207C186.207 7.54102 186.475 7.35742 186.627 7.16992C186.779 6.98242 186.855 6.76562 186.855 6.51953C186.855 6.25 186.758 6.03711 186.562 5.88086C186.367 5.72461 186.117 5.64648 185.812 5.64648ZM193.693 13L196.91 5.96875H192.686V4.44531H198.832V5.58203L195.592 13H193.693ZM202.652 4.32227C203.473 4.32227 204.133 4.50977 204.633 4.88477C205.137 5.25586 205.389 5.75781 205.389 6.39062C205.389 6.82812 205.268 7.21875 205.025 7.5625C204.783 7.90234 204.393 8.20703 203.854 8.47656C204.494 8.82031 204.953 9.17969 205.23 9.55469C205.512 9.92578 205.652 10.334 205.652 10.7793C205.652 11.4824 205.377 12.0488 204.826 12.4785C204.275 12.9043 203.551 13.1172 202.652 13.1172C201.715 13.1172 200.979 12.918 200.443 12.5195C199.908 12.1211 199.641 11.5566 199.641 10.8262C199.641 10.3379 199.77 9.9043 200.027 9.52539C200.289 9.14648 200.707 8.8125 201.281 8.52344C200.793 8.21484 200.441 7.88477 200.227 7.5332C200.012 7.18164 199.904 6.79688 199.904 6.37891C199.904 5.76562 200.158 5.26953 200.666 4.89062C201.174 4.51172 201.836 4.32227 202.652 4.32227ZM201.316 10.7207C201.316 11.0566 201.434 11.3184 201.668 11.5059C201.902 11.6934 202.223 11.7871 202.629 11.7871C203.078 11.7871 203.414 11.6914 203.637 11.5C203.859 11.3047 203.971 11.0488 203.971 10.7324C203.971 10.4707 203.859 10.2266 203.637 10C203.418 9.76953 203.061 9.52539 202.564 9.26758C201.732 9.65039 201.316 10.1348 201.316 10.7207ZM202.641 5.64648C202.332 5.64648 202.082 5.72656 201.891 5.88672C201.703 6.04297 201.609 6.25391 201.609 6.51953C201.609 6.75391 201.684 6.96484 201.832 7.15234C201.984 7.33594 202.258 7.52539 202.652 7.7207C203.035 7.54102 203.303 7.35742 203.455 7.16992C203.607 6.98242 203.684 6.76562 203.684 6.51953C203.684 6.25 203.586 6.03711 203.391 5.88086C203.195 5.72461 202.945 5.64648 202.641 5.64648ZM212.543 13H206.555V11.7402L208.705 9.56641C209.342 8.91406 209.758 8.46289 209.953 8.21289C210.148 7.95898 210.289 7.72461 210.375 7.50977C210.461 7.29492 210.504 7.07227 210.504 6.8418C210.504 6.49805 210.408 6.24219 210.217 6.07422C210.029 5.90625 209.777 5.82227 209.461 5.82227C209.129 5.82227 208.807 5.89844 208.494 6.05078C208.182 6.20312 207.855 6.41992 207.516 6.70117L206.531 5.53516C206.953 5.17578 207.303 4.92188 207.58 4.77344C207.857 4.625 208.16 4.51172 208.488 4.43359C208.816 4.35156 209.184 4.31055 209.59 4.31055C210.125 4.31055 210.598 4.4082 211.008 4.60352C211.418 4.79883 211.736 5.07227 211.963 5.42383C212.189 5.77539 212.303 6.17773 212.303 6.63086C212.303 7.02539 212.232 7.39648 212.092 7.74414C211.955 8.08789 211.74 8.44141 211.447 8.80469C211.158 9.16797 210.646 9.68555 209.912 10.3574L208.811 11.3945V11.4766H212.543V13ZM254.229 9.71289C254.229 10.3613 254.334 10.8516 254.545 11.1836C254.76 11.5156 255.107 11.6816 255.588 11.6816C256.064 11.6816 256.406 11.5176 256.613 11.1895C256.824 10.8574 256.93 10.3652 256.93 9.71289C256.93 9.06445 256.824 8.57812 256.613 8.25391C256.402 7.92969 256.057 7.76758 255.576 7.76758C255.1 7.76758 254.756 7.92969 254.545 8.25391C254.334 8.57422 254.229 9.06055 254.229 9.71289ZM258.758 9.71289C258.758 10.7793 258.477 11.6133 257.914 12.2148C257.352 12.8164 256.568 13.1172 255.564 13.1172C254.936 13.1172 254.381 12.9805 253.9 12.707C253.42 12.4297 253.051 12.0332 252.793 11.5176C252.535 11.002 252.406 10.4004 252.406 9.71289C252.406 8.64258 252.686 7.81055 253.244 7.2168C253.803 6.62305 254.588 6.32617 255.6 6.32617C256.229 6.32617 256.783 6.46289 257.264 6.73633C257.744 7.00977 258.113 7.40234 258.371 7.91406C258.629 8.42578 258.758 9.02539 258.758 9.71289ZM263.855 7.79102H262.309V13H260.521V7.79102H259.537V6.92969L260.521 6.44922V5.96875C260.521 5.22266 260.705 4.67773 261.072 4.33398C261.439 3.99023 262.027 3.81836 262.836 3.81836C263.453 3.81836 264.002 3.91016 264.482 4.09375L264.025 5.40625C263.666 5.29297 263.334 5.23633 263.029 5.23633C262.775 5.23633 262.592 5.3125 262.479 5.46484C262.365 5.61328 262.309 5.80469 262.309 6.03906V6.44922H263.855V7.79102ZM268.502 7.79102H266.955V13H265.168V7.79102H264.184V6.92969L265.168 6.44922V5.96875C265.168 5.22266 265.352 4.67773 265.719 4.33398C266.086 3.99023 266.674 3.81836 267.482 3.81836C268.1 3.81836 268.648 3.91016 269.129 4.09375L268.672 5.40625C268.312 5.29297 267.98 5.23633 267.676 5.23633C267.422 5.23633 267.238 5.3125 267.125 5.46484C267.012 5.61328 266.955 5.80469 266.955 6.03906V6.44922H268.502V7.79102ZM269.434 4.75586C269.434 4.17383 269.758 3.88281 270.406 3.88281C271.055 3.88281 271.379 4.17383 271.379 4.75586C271.379 5.0332 271.297 5.25 271.133 5.40625C270.973 5.55859 270.73 5.63477 270.406 5.63477C269.758 5.63477 269.434 5.3418 269.434 4.75586ZM271.297 13H269.51V6.44922H271.297V13ZM275.832 13.1172C273.793 13.1172 272.773 11.998 272.773 9.75977C272.773 8.64648 273.051 7.79688 273.605 7.21094C274.16 6.62109 274.955 6.32617 275.99 6.32617C276.748 6.32617 277.428 6.47461 278.029 6.77148L277.502 8.1543C277.221 8.04102 276.959 7.94922 276.717 7.87891C276.475 7.80469 276.232 7.76758 275.99 7.76758C275.061 7.76758 274.596 8.42773 274.596 9.74805C274.596 11.0293 275.061 11.6699 275.99 11.6699C276.334 11.6699 276.652 11.625 276.945 11.5352C277.238 11.4414 277.531 11.2969 277.824 11.1016V12.6309C277.535 12.8145 277.242 12.9414 276.945 13.0117C276.652 13.082 276.281 13.1172 275.832 13.1172ZM282.061 7.59766C281.682 7.59766 281.385 7.71875 281.17 7.96094C280.955 8.19922 280.832 8.53906 280.801 8.98047H283.309C283.301 8.53906 283.186 8.19922 282.963 7.96094C282.74 7.71875 282.439 7.59766 282.061 7.59766ZM282.312 13.1172C281.258 13.1172 280.434 12.8262 279.84 12.2441C279.246 11.6621 278.949 10.8379 278.949 9.77148C278.949 8.67383 279.223 7.82617 279.77 7.22852C280.32 6.62695 281.08 6.32617 282.049 6.32617C282.975 6.32617 283.695 6.58984 284.211 7.11719C284.727 7.64453 284.984 8.37305 284.984 9.30273V10.1699H280.76C280.779 10.6777 280.93 11.0742 281.211 11.3594C281.492 11.6445 281.887 11.7871 282.395 11.7871C282.789 11.7871 283.162 11.7461 283.514 11.6641C283.865 11.582 284.232 11.4512 284.615 11.2715V12.6543C284.303 12.8105 283.969 12.9258 283.613 13C283.258 13.0781 282.824 13.1172 282.312 13.1172ZM295.666 8.59375C295.666 9.15625 295.576 9.67188 295.396 10.1406C295.217 10.6055 294.963 10.9707 294.635 11.2363C294.307 11.502 293.926 11.6348 293.492 11.6348C293.203 11.6348 292.947 11.5664 292.725 11.4297C292.502 11.2891 292.342 11.1055 292.244 10.8789H292.15C291.729 11.3828 291.191 11.6348 290.539 11.6348C289.848 11.6348 289.303 11.4277 288.904 11.0137C288.506 10.5957 288.307 10.0254 288.307 9.30273C288.307 8.47852 288.568 7.81445 289.092 7.31055C289.615 6.80664 290.299 6.55469 291.143 6.55469C291.479 6.55469 291.848 6.58789 292.25 6.6543C292.656 6.7168 292.99 6.79297 293.252 6.88281L293.117 9.74805C293.117 10.291 293.266 10.5625 293.562 10.5625C293.812 10.5625 294.012 10.3809 294.16 10.0176C294.309 9.65039 294.383 9.17188 294.383 8.58203C294.383 7.95312 294.252 7.39844 293.99 6.91797C293.729 6.43359 293.359 6.06445 292.883 5.81055C292.41 5.55664 291.869 5.42969 291.26 5.42969C290.471 5.42969 289.785 5.5918 289.203 5.91602C288.621 6.24023 288.174 6.70898 287.861 7.32227C287.553 7.93164 287.398 8.63672 287.398 9.4375C287.398 10.5156 287.686 11.3438 288.26 11.9219C288.838 12.4961 289.674 12.7832 290.768 12.7832C291.182 12.7832 291.637 12.7383 292.133 12.6484C292.629 12.5547 293.117 12.4199 293.598 12.2441V13.3691C292.762 13.7246 291.834 13.9023 290.814 13.9023C289.33 13.9023 288.172 13.5117 287.34 12.7305C286.512 11.9492 286.098 10.8633 286.098 9.47266C286.098 8.50781 286.309 7.63281 286.73 6.84766C287.156 6.05859 287.76 5.44141 288.541 4.99609C289.326 4.54688 290.229 4.32227 291.248 4.32227C292.107 4.32227 292.875 4.49805 293.551 4.84961C294.227 5.20117 294.748 5.70117 295.115 6.34961C295.482 6.99805 295.666 7.74609 295.666 8.59375ZM289.666 9.32617C289.666 10.1504 290.002 10.5625 290.674 10.5625C291.025 10.5625 291.293 10.4395 291.477 10.1934C291.66 9.94336 291.771 9.53906 291.811 8.98047L291.887 7.68555C291.688 7.64258 291.463 7.62109 291.213 7.62109C290.725 7.62109 290.344 7.77344 290.07 8.07812C289.801 8.38281 289.666 8.79883 289.666 9.32617ZM303.072 13H301.285V9.17383C301.285 8.70117 301.205 8.34766 301.045 8.11328C300.889 7.875 300.641 7.75586 300.301 7.75586C299.844 7.75586 299.512 7.92383 299.305 8.25977C299.098 8.5957 298.994 9.14844 298.994 9.91797V13H297.207V6.44922H298.572L298.812 7.28711H298.912C299.088 6.98633 299.342 6.75195 299.674 6.58398C300.006 6.41211 300.387 6.32617 300.816 6.32617C301.797 6.32617 302.461 6.64648 302.809 7.28711H302.967C303.143 6.98242 303.4 6.74609 303.74 6.57812C304.084 6.41016 304.471 6.32617 304.9 6.32617C305.643 6.32617 306.203 6.51758 306.582 6.90039C306.965 7.2793 307.156 7.88867 307.156 8.72852V13H305.363V9.17383C305.363 8.70117 305.283 8.34766 305.123 8.11328C304.967 7.875 304.719 7.75586 304.379 7.75586C303.941 7.75586 303.613 7.91211 303.395 8.22461C303.18 8.53711 303.072 9.0332 303.072 9.71289V13ZM308.92 4.75586C308.92 4.17383 309.244 3.88281 309.893 3.88281C310.541 3.88281 310.865 4.17383 310.865 4.75586C310.865 5.0332 310.783 5.25 310.619 5.40625C310.459 5.55859 310.217 5.63477 309.893 5.63477C309.244 5.63477 308.92 5.3418 308.92 4.75586ZM310.783 13H308.996V6.44922H310.783V13ZM318.711 13H316.924V9.17383C316.924 8.70117 316.84 8.34766 316.672 8.11328C316.504 7.875 316.236 7.75586 315.869 7.75586C315.369 7.75586 315.008 7.92383 314.785 8.25977C314.562 8.5918 314.451 9.14453 314.451 9.91797V13H312.664V6.44922H314.029L314.27 7.28711H314.369C314.568 6.9707 314.842 6.73242 315.189 6.57227C315.541 6.4082 315.939 6.32617 316.385 6.32617C317.146 6.32617 317.725 6.5332 318.119 6.94727C318.514 7.35742 318.711 7.95117 318.711 8.72852V13ZM322.625 13.1172C321.855 13.1172 321.25 12.8184 320.809 12.2207C320.371 11.623 320.152 10.7949 320.152 9.73633C320.152 8.66211 320.375 7.82617 320.82 7.22852C321.27 6.62695 321.887 6.32617 322.672 6.32617C323.496 6.32617 324.125 6.64648 324.559 7.28711H324.617C324.527 6.79883 324.482 6.36328 324.482 5.98047V3.88281H326.275V13H324.904L324.559 12.1504H324.482C324.076 12.7949 323.457 13.1172 322.625 13.1172ZM323.252 11.6934C323.709 11.6934 324.043 11.5605 324.254 11.2949C324.469 11.0293 324.586 10.5781 324.605 9.94141V9.74805C324.605 9.04492 324.496 8.54102 324.277 8.23633C324.062 7.93164 323.711 7.7793 323.223 7.7793C322.824 7.7793 322.514 7.94922 322.291 8.28906C322.072 8.625 321.963 9.11523 321.963 9.75977C321.963 10.4043 322.074 10.8887 322.297 11.2129C322.52 11.5332 322.838 11.6934 323.252 11.6934ZM331.789 6.32617C332.562 6.32617 333.168 6.62891 333.605 7.23438C334.043 7.83594 334.262 8.66211 334.262 9.71289C334.262 10.7949 334.035 11.6328 333.582 12.2266C333.133 12.8203 332.52 13.1172 331.742 13.1172C330.973 13.1172 330.369 12.8379 329.932 12.2793H329.809L329.51 13H328.145V3.88281H329.932V6.00391C329.932 6.27344 329.908 6.70508 329.861 7.29883H329.932C330.35 6.65039 330.969 6.32617 331.789 6.32617ZM331.215 7.75586C330.773 7.75586 330.451 7.89258 330.248 8.16602C330.045 8.43555 329.939 8.88281 329.932 9.50781V9.70117C329.932 10.4043 330.035 10.9082 330.242 11.2129C330.453 11.5176 330.785 11.6699 331.238 11.6699C331.605 11.6699 331.896 11.502 332.111 11.166C332.33 10.8262 332.439 10.334 332.439 9.68945C332.439 9.04492 332.33 8.5625 332.111 8.24219C331.893 7.91797 331.594 7.75586 331.215 7.75586ZM337.525 13H335.738V3.88281H337.525V13ZM339.33 4.75586C339.33 4.17383 339.654 3.88281 340.303 3.88281C340.951 3.88281 341.275 4.17383 341.275 4.75586C341.275 5.0332 341.193 5.25 341.029 5.40625C340.869 5.55859 340.627 5.63477 340.303 5.63477C339.654 5.63477 339.33 5.3418 339.33 4.75586ZM341.193 13H339.406V6.44922H341.193V13ZM347.645 11.0547C347.645 11.7266 347.41 12.2383 346.941 12.5898C346.477 12.9414 345.779 13.1172 344.85 13.1172C344.373 13.1172 343.967 13.084 343.631 13.0176C343.295 12.9551 342.98 12.8613 342.688 12.7363V11.2598C343.02 11.416 343.393 11.5469 343.807 11.6523C344.225 11.7578 344.592 11.8105 344.908 11.8105C345.557 11.8105 345.881 11.623 345.881 11.248C345.881 11.1074 345.838 10.9941 345.752 10.9082C345.666 10.8184 345.518 10.7188 345.307 10.6094C345.096 10.4961 344.814 10.3652 344.463 10.2168C343.959 10.0059 343.588 9.81055 343.35 9.63086C343.115 9.45117 342.943 9.24609 342.834 9.01562C342.729 8.78125 342.676 8.49414 342.676 8.1543C342.676 7.57227 342.9 7.12305 343.35 6.80664C343.803 6.48633 344.443 6.32617 345.271 6.32617C346.061 6.32617 346.828 6.49805 347.574 6.8418L347.035 8.13086C346.707 7.99023 346.4 7.875 346.115 7.78516C345.83 7.69531 345.539 7.65039 345.242 7.65039C344.715 7.65039 344.451 7.79297 344.451 8.07812C344.451 8.23828 344.535 8.37695 344.703 8.49414C344.875 8.61133 345.248 8.78516 345.822 9.01562C346.334 9.22266 346.709 9.41602 346.947 9.5957C347.186 9.77539 347.361 9.98242 347.475 10.2168C347.588 10.4512 347.645 10.7305 347.645 11.0547ZM351.799 11.6934C352.111 11.6934 352.486 11.625 352.924 11.4883V12.8184C352.479 13.0176 351.932 13.1172 351.283 13.1172C350.568 13.1172 350.047 12.9375 349.719 12.5781C349.395 12.2148 349.232 11.6719 349.232 10.9492V7.79102H348.377V7.03516L349.361 6.4375L349.877 5.05469H351.02V6.44922H352.854V7.79102H351.02V10.9492C351.02 11.2031 351.09 11.3906 351.23 11.5117C351.375 11.6328 351.564 11.6934 351.799 11.6934ZM356.967 7.59766C356.588 7.59766 356.291 7.71875 356.076 7.96094C355.861 8.19922 355.738 8.53906 355.707 8.98047H358.215C358.207 8.53906 358.092 8.19922 357.869 7.96094C357.646 7.71875 357.346 7.59766 356.967 7.59766ZM357.219 13.1172C356.164 13.1172 355.34 12.8262 354.746 12.2441C354.152 11.6621 353.855 10.8379 353.855 9.77148C353.855 8.67383 354.129 7.82617 354.676 7.22852C355.227 6.62695 355.986 6.32617 356.955 6.32617C357.881 6.32617 358.602 6.58984 359.117 7.11719C359.633 7.64453 359.891 8.37305 359.891 9.30273V10.1699H355.666C355.686 10.6777 355.836 11.0742 356.117 11.3594C356.398 11.6445 356.793 11.7871 357.301 11.7871C357.695 11.7871 358.068 11.7461 358.42 11.6641C358.771 11.582 359.139 11.4512 359.521 11.2715V12.6543C359.209 12.8105 358.875 12.9258 358.52 13C358.164 13.0781 357.73 13.1172 357.219 13.1172ZM365 6.32617C365.242 6.32617 365.443 6.34375 365.604 6.37891L365.469 8.05469C365.324 8.01562 365.148 7.99609 364.941 7.99609C364.371 7.99609 363.926 8.14258 363.605 8.43555C363.289 8.72852 363.131 9.13867 363.131 9.66602V13H361.344V6.44922H362.697L362.961 7.55078H363.049C363.252 7.18359 363.525 6.88867 363.869 6.66602C364.217 6.43945 364.594 6.32617 365 6.32617ZM366.541 12.1621C366.541 11.834 366.629 11.5859 366.805 11.418C366.98 11.25 367.236 11.166 367.572 11.166C367.896 11.166 368.146 11.252 368.322 11.4238C368.502 11.5957 368.592 11.8418 368.592 12.1621C368.592 12.4707 368.502 12.7148 368.322 12.8945C368.143 13.0703 367.893 13.1582 367.572 13.1582C367.244 13.1582 366.99 13.0723 366.811 12.9004C366.631 12.7246 366.541 12.4785 366.541 12.1621ZM372.875 13.1172C370.836 13.1172 369.816 11.998 369.816 9.75977C369.816 8.64648 370.094 7.79688 370.648 7.21094C371.203 6.62109 371.998 6.32617 373.033 6.32617C373.791 6.32617 374.471 6.47461 375.072 6.77148L374.545 8.1543C374.264 8.04102 374.002 7.94922 373.76 7.87891C373.518 7.80469 373.275 7.76758 373.033 7.76758C372.104 7.76758 371.639 8.42773 371.639 9.74805C371.639 11.0293 372.104 11.6699 373.033 11.6699C373.377 11.6699 373.695 11.625 373.988 11.5352C374.281 11.4414 374.574 11.2969 374.867 11.1016V12.6309C374.578 12.8145 374.285 12.9414 373.988 13.0117C373.695 13.082 373.324 13.1172 372.875 13.1172ZM377.814 9.71289C377.814 10.3613 377.92 10.8516 378.131 11.1836C378.346 11.5156 378.693 11.6816 379.174 11.6816C379.65 11.6816 379.992 11.5176 380.199 11.1895C380.41 10.8574 380.516 10.3652 380.516 9.71289C380.516 9.06445 380.41 8.57812 380.199 8.25391C379.988 7.92969 379.643 7.76758 379.162 7.76758C378.686 7.76758 378.342 7.92969 378.131 8.25391C377.92 8.57422 377.814 9.06055 377.814 9.71289ZM382.344 9.71289C382.344 10.7793 382.062 11.6133 381.5 12.2148C380.938 12.8164 380.154 13.1172 379.15 13.1172C378.521 13.1172 377.967 12.9805 377.486 12.707C377.006 12.4297 376.637 12.0332 376.379 11.5176C376.121 11.002 375.992 10.4004 375.992 9.71289C375.992 8.64258 376.271 7.81055 376.83 7.2168C377.389 6.62305 378.174 6.32617 379.186 6.32617C379.814 6.32617 380.369 6.46289 380.85 6.73633C381.33 7.00977 381.699 7.40234 381.957 7.91406C382.215 8.42578 382.344 9.02539 382.344 9.71289ZM389.686 13H387.898V9.17383C387.898 8.70117 387.818 8.34766 387.658 8.11328C387.502 7.875 387.254 7.75586 386.914 7.75586C386.457 7.75586 386.125 7.92383 385.918 8.25977C385.711 8.5957 385.607 9.14844 385.607 9.91797V13H383.82V6.44922H385.186L385.426 7.28711H385.525C385.701 6.98633 385.955 6.75195 386.287 6.58398C386.619 6.41211 387 6.32617 387.43 6.32617C388.41 6.32617 389.074 6.64648 389.422 7.28711H389.58C389.756 6.98242 390.014 6.74609 390.354 6.57812C390.697 6.41016 391.084 6.32617 391.514 6.32617C392.256 6.32617 392.816 6.51758 393.195 6.90039C393.578 7.2793 393.77 7.88867 393.77 8.72852V13H391.977V9.17383C391.977 8.70117 391.896 8.34766 391.736 8.11328C391.58 7.875 391.332 7.75586 390.992 7.75586C390.555 7.75586 390.227 7.91211 390.008 8.22461C389.793 8.53711 389.686 9.0332 389.686 9.71289V13Z" fill="#333333" fill-opacity="0.5"/>
</g>
<defs>
<clipPath id="clip0">
<rect width="1440" height="6677" fill="white" transform="translate(-277 -5964)"/>
</clipPath>
</defs>
</svg>
